<?xml version="1.0" encoding="UTF-8"?>
<svg width="421px" height="187px" viewBox="0 0 421 187" version="1.1" xmlns="http://www.w3.org/2000/svg" xmlns:xlink="http://www.w3.org/1999/xlink">
    <!-- Generator: Sketch 51.2 (57519) - http://www.bohemiancoding.com/sketch -->
    <title>array literal</title>
    <desc>Created with Sketch.</desc>
    <defs></defs>
    <g id="array-literal" stroke="none" stroke-width="1" fill="none" fill-rule="evenodd">
        <rect fill="#FFFFFF" x="0" y="0" width="421" height="187"></rect>
        <path d="M84.2561035,91.8164062 L85.4865723,91.8164062 C85.6281745,91.8164062 85.7429195,91.8554684 85.8308105,91.9335938 C85.9187016,92.0117191 85.9626465,92.1166986 85.9626465,92.2485352 C85.9626465,92.3901374 85.921143,92.5036617 85.8381348,92.5891113 C85.7551265,92.674561 85.642823,92.7172852 85.5012207,92.7172852 L83.5310059,92.7172852 C83.3796379,92.7172852 83.2526861,92.6708989 83.1501465,92.578125 C83.0476069,92.4853511 82.9963379,92.3706062 82.9963379,92.2338867 L82.9963379,81.796875 C82.9963379,81.6601556 83.0476069,81.5454106 83.1501465,81.4526367 C83.2526861,81.3598628 83.3796379,81.3134766 83.5310059,81.3134766 L85.5012207,81.3134766 C85.642823,81.3134766 85.7551265,81.3537594 85.8381348,81.4343262 C85.921143,81.514893 85.9626465,81.6259759 85.9626465,81.7675781 C85.9626465,81.8994147 85.9187016,82.0068355 85.8308105,82.0898438 C85.7429195,82.172852 85.6281745,82.2143555 85.4865723,82.2143555 L84.2561035,82.2143555 L84.2561035,91.8164062 Z M245.637939,87.956543 C245.677002,87.7905265 245.728271,87.6843264 245.791748,87.6379395 C245.855225,87.5915525 245.962646,87.5683594 246.114014,87.5683594 L247.718018,87.5683594 C247.79126,87.5683594 247.849853,87.5830077 247.893799,87.6123047 C247.937744,87.6416017 247.959717,87.6782224 247.959717,87.722168 C247.959717,87.7465822 247.954834,87.7783201 247.945068,87.8173828 C247.935303,87.8564455 247.920654,87.8930662 247.901123,87.9272461 L245.886963,92.1166992 C245.852783,92.1899418 245.806397,92.2485349 245.747803,92.2924805 C245.689209,92.336426 245.625733,92.3583984 245.557373,92.3583984 C245.542725,92.3583984 245.526856,92.3559571 245.509766,92.3510742 C245.492676,92.3461914 245.4646,92.3364259 245.425537,92.3217773 L244.912842,92.1313477 C244.834716,92.0971678 244.776123,92.0581057 244.737061,92.0141602 C244.697998,91.9702146 244.678467,91.9189456 244.678467,91.8603516 L244.678467,91.7468262 C244.678467,91.7248534 244.68335,91.7016603 244.693115,91.6772461 L245.637939,87.956543 Z M281.643799,87.956543 C281.682862,87.7905265 281.734131,87.6843264 281.797607,87.6379395 C281.861084,87.5915525 281.968505,87.5683594 282.119873,87.5683594 L283.723877,87.5683594 C283.79712,87.5683594 283.855713,87.5830077 283.899658,87.6123047 C283.943604,87.6416017 283.965576,87.6782224 283.965576,87.722168 C283.965576,87.7465822 283.960693,87.7783201 283.950928,87.8173828 C283.941162,87.8564455 283.926514,87.8930662 283.906982,87.9272461 L281.892822,92.1166992 C281.858642,92.1899418 281.812256,92.2485349 281.753662,92.2924805 C281.695068,92.336426 281.631592,92.3583984 281.563232,92.3583984 C281.548584,92.3583984 281.532715,92.3559571 281.515625,92.3510742 C281.498535,92.3461914 281.470459,92.3364259 281.431396,92.3217773 L280.918701,92.1313477 C280.840576,92.0971678 280.781983,92.0581057 280.74292,92.0141602 C280.703857,91.9702146 280.684326,91.9189456 280.684326,91.8603516 L280.684326,91.7468262 C280.684326,91.7248534 280.689209,91.7016603 280.698975,91.6772461 L281.643799,87.956543 Z M336.743896,82.2143555 L335.513428,82.2143555 C335.366943,82.2143555 335.250977,82.1740727 335.165527,82.0935059 C335.080078,82.0129391 335.037354,81.9042976 335.037354,81.7675781 C335.037354,81.6259759 335.077636,81.514893 335.158203,81.4343262 C335.23877,81.3537594 335.352294,81.3134766 335.498779,81.3134766 L337.46167,81.3134766 C337.617921,81.3134766 337.747314,81.3598628 337.849854,81.4526367 C337.952393,81.5454106 338.003662,81.6601556 338.003662,81.796875 L338.003662,92.2338867 C338.003662,92.3706062 337.952393,92.4853511 337.849854,92.578125 C337.747314,92.6708989 337.617921,92.7172852 337.46167,92.7172852 L335.498779,92.7172852 C335.357177,92.7172852 335.244873,92.674561 335.161865,92.5891113 C335.078857,92.5036617 335.037354,92.3901374 335.037354,92.2485352 C335.037354,92.1118157 335.080078,92.0056156 335.165527,91.9299316 C335.250977,91.8542477 335.366943,91.8164062 335.513428,91.8164062 L336.743896,91.8164062 L336.743896,82.2143555 Z" id="[’element-example’," fill="#9B9B9B"></path>
        <g id="Group-2" transform="translate(269.000000, 61.500000) rotate(-360.000000) translate(-269.000000, -61.500000) translate(261.000000, 50.000000)" stroke="#4A4A4A" stroke-linecap="square">
            <path d="M15,12 L15,23" id="Line-4-Copy" transform="translate(15.000000, 17.500000) scale(-1, -1) translate(-15.000000, -17.500000) "></path>
            <path d="M1,12 C1,12 1,15.6666667 1,23" id="Line-4-Copy-2" transform="translate(1.000000, 17.500000) scale(-1, -1) translate(-1.000000, -17.500000) "></path>
            <path d="M1,11 L15,11" id="Line-5-Copy" transform="translate(8.000000, 11.000000) scale(-1, -1) translate(-8.000000, -11.000000) "></path>
            <path d="M8,0.5 L8,11" id="Line-6-Copy" transform="translate(8.000000, 5.750000) scale(-1, -1) translate(-8.000000, -5.750000) "></path>
        </g>
        <path d="M160.445068,44 L160.445068,36.1313477 L161.900635,36.1313477 L161.900635,44 L160.445068,44 Z M163.640869,44 L163.640869,36.1313477 L165.187744,36.1313477 C165.467042,36.5681988 166.034582,37.4490494 166.890381,38.7739258 C167.746179,40.0988022 168.26717,40.9044582 168.453369,41.190918 C168.50708,41.2732752 168.599283,41.412027 168.72998,41.6071777 C168.860678,41.8023284 168.952881,41.9410803 169.006592,42.0234375 C168.981527,40.7952413 168.968994,40.1578778 168.968994,40.1113281 L168.968994,36.1313477 L170.295654,36.1313477 L170.295654,44 L168.727295,44 L165.177002,38.4677734 L164.919189,38.043457 C164.947835,38.9887743 164.962158,39.6529929 164.962158,40.0361328 L164.962158,44 L163.640869,44 Z M173.448486,42.8344727 L174.490479,42.8344727 C175.389246,42.8344727 176.073158,42.5990421 176.542236,42.1281738 C177.011314,41.6573056 177.24585,40.9707076 177.24585,40.0683594 C177.24585,39.1015577 177.004153,38.3988466 176.520752,37.9602051 C176.037351,37.5215636 175.30868,37.3022461 174.334717,37.3022461 L173.448486,37.3022461 L173.448486,42.8344727 Z M171.99292,44 L171.99292,36.1313477 L174.270264,36.1313477 C174.957767,36.1313477 175.573646,36.2101229 176.11792,36.3676758 C176.662193,36.5252287 177.130369,36.7624496 177.522461,37.0793457 C177.914553,37.3962418 178.215331,37.8044409 178.424805,38.3039551 C178.634278,38.8034693 178.739014,39.3808561 178.739014,40.0361328 C178.739014,41.307298 178.355879,42.2857225 177.5896,42.9714355 C176.82332,43.6571486 175.761644,44 174.404541,44 L171.99292,44 Z M180.156982,44 L180.156982,36.1313477 L181.612549,36.1313477 L181.612549,44 L180.156982,44 Z M185.334717,44 L182.471924,36.1313477 L183.970459,36.1313477 L185.635498,40.9921875 C185.699951,41.1604826 185.84855,41.6528279 186.081299,42.4692383 C186.095622,42.4119463 186.161865,42.1765157 186.280029,41.7629395 C186.398194,41.3493632 186.475179,41.0960291 186.510986,41.0029297 C186.553955,40.8811843 186.826088,40.0728428 187.327393,38.5778809 C187.828697,37.082919 188.10262,36.267416 188.14917,36.1313477 L189.631592,36.1313477 L186.806396,44 L185.334717,44 Z M190.485596,44 L190.485596,36.1313477 L191.941162,36.1313477 L191.941162,44 L190.485596,44 Z M195.142334,42.8344727 L196.184326,42.8344727 C197.083094,42.8344727 197.767006,42.5990421 198.236084,42.1281738 C198.705162,41.6573056 198.939697,40.9707076 198.939697,40.0683594 C198.939697,39.1015577 198.698,38.3988466 198.2146,37.9602051 C197.731199,37.5215636 197.002528,37.3022461 196.028564,37.3022461 L195.142334,37.3022461 L195.142334,42.8344727 Z M193.686768,44 L193.686768,36.1313477 L195.964111,36.1313477 C196.651615,36.1313477 197.267494,36.2101229 197.811768,36.3676758 C198.356041,36.5252287 198.824217,36.7624496 199.216309,37.0793457 C199.6084,37.3962418 199.909179,37.8044409 200.118652,38.3039551 C200.328126,38.8034693 200.432861,39.3808561 200.432861,40.0361328 C200.432861,41.307298 200.049727,42.2857225 199.283447,42.9714355 C198.517167,43.6571486 197.455492,44 196.098389,44 L193.686768,44 Z M204.885498,44.112793 C203.854243,44.112793 203.071861,43.8558782 202.53833,43.342041 C202.004799,42.8282038 201.738037,42.1040086 201.738037,41.1694336 L201.738037,36.1313477 L203.198975,36.1313477 L203.198975,41.0458984 C203.198975,41.7011752 203.332355,42.1791977 203.599121,42.4799805 C203.865887,42.7807632 204.303627,42.9311523 204.912354,42.9311523 C205.510338,42.9311523 205.943602,42.779868 206.212158,42.4772949 C206.480714,42.1747218 206.61499,41.6958041 206.61499,41.0405273 L206.61499,36.1313477 L208.070557,36.1313477 L208.070557,41.1801758 C208.070557,42.1075893 207.798424,42.8282038 207.25415,43.342041 C206.709877,43.8558782 205.920334,44.112793 204.885498,44.112793 Z M208.736572,44 L211.631592,36.1259766 L213.216064,36.1259766 L216.068115,44 L214.574951,44 L213.796143,41.7763672 L211.040771,41.7763672 L210.256592,44 L208.736572,44 Z M211.406006,40.6914062 L213.425537,40.6914062 C212.781003,38.6253152 212.449789,37.5582686 212.431885,37.4902344 L211.406006,40.6914062 Z M216.852295,44 L216.852295,36.1313477 L218.307861,36.1313477 L218.307861,42.8398438 L221.600342,42.8398438 L221.557373,44 L216.852295,44 Z M224.645752,44 L227.540771,36.1259766 L229.125244,36.1259766 L231.977295,44 L230.484131,44 L229.705322,41.7763672 L226.949951,41.7763672 L226.165771,44 L224.645752,44 Z M227.315186,40.6914062 L229.334717,40.6914062 C228.690182,38.6253152 228.358968,37.5582686 228.341064,37.4902344 L227.315186,40.6914062 Z M232.723877,44 L232.723877,36.1098633 L235.640381,36.1098633 C236.037844,36.1098633 236.382486,36.1277667 236.674316,36.1635742 C236.966147,36.1993817 237.243651,36.2647293 237.506836,36.3596191 C237.770021,36.4545089 237.983072,36.5825187 238.145996,36.7436523 C238.30892,36.904786 238.437825,37.1151517 238.532715,37.3747559 C238.627605,37.63436 238.675049,37.9414045 238.675049,38.2958984 C238.675049,39.3414766 238.200607,40.0289697 237.251709,40.3583984 C237.445069,40.576824 237.684976,40.9814424 237.971436,41.5722656 L239.142334,44 L237.55249,44 L236.634033,41.9428711 C236.286701,41.2052372 236.071859,40.7683926 235.989502,40.6323242 C235.928629,40.6287435 235.72632,40.6269531 235.382568,40.6269531 L234.16333,40.6162109 L234.16333,44 L232.723877,44 Z M235.769287,39.5742188 C236.327884,39.5742188 236.728921,39.4748545 236.972412,39.276123 C237.215903,39.0773916 237.337646,38.7578147 237.337646,38.3173828 C237.337646,37.9306621 237.214113,37.645997 236.967041,37.4633789 C236.719969,37.2807608 236.342206,37.1894531 235.83374,37.1894531 L234.16333,37.1894531 L234.16333,39.5688477 C234.217041,39.5688477 234.483803,39.5697428 234.963623,39.5715332 C235.443443,39.5733236 235.711995,39.5742188 235.769287,39.5742188 Z M240.1521,44 L240.1521,36.1098633 L243.068604,36.1098633 C243.466066,36.1098633 243.810708,36.1277667 244.102539,36.1635742 C244.39437,36.1993817 244.671874,36.2647293 244.935059,36.3596191 C245.198244,36.4545089 245.411295,36.5825187 245.574219,36.7436523 C245.737143,36.904786 245.866048,37.1151517 245.960938,37.3747559 C246.055827,37.63436 246.103271,37.9414045 246.103271,38.2958984 C246.103271,39.3414766 245.62883,40.0289697 244.679932,40.3583984 C244.873292,40.576824 245.113198,40.9814424 245.399658,41.5722656 L246.570557,44 L244.980713,44 L244.062256,41.9428711 C243.714923,41.2052372 243.500082,40.7683926 243.417725,40.6323242 C243.356852,40.6287435 243.154543,40.6269531 242.810791,40.6269531 L241.591553,40.6162109 L241.591553,44 L240.1521,44 Z M243.19751,39.5742188 C243.756106,39.5742188 244.157144,39.4748545 244.400635,39.276123 C244.644126,39.0773916 244.765869,38.7578147 244.765869,38.3173828 C244.765869,37.9306621 244.642335,37.645997 244.395264,37.4633789 C244.148192,37.2807608 243.770429,37.1894531 243.261963,37.1894531 L241.591553,37.1894531 L241.591553,39.5688477 C241.645264,39.5688477 241.912026,39.5697428 242.391846,39.5715332 C242.871666,39.5733236 243.140218,39.5742188 243.19751,39.5742188 Z M246.812256,44 L249.707275,36.1259766 L251.291748,36.1259766 L254.143799,44 L252.650635,44 L251.871826,41.7763672 L249.116455,41.7763672 L248.332275,44 L246.812256,44 Z M249.481689,40.6914062 L251.501221,40.6914062 C250.856686,38.6253152 250.525472,37.5582686 250.507568,37.4902344 L249.481689,40.6914062 Z M256.30835,44 L256.30835,40.8793945 L253.585205,36.1313477 L255.164307,36.1313477 L257.038818,39.5366211 L258.924072,36.1313477 L260.481689,36.1313477 L257.769287,40.8525391 L257.769287,44 L256.30835,44 Z M264.16626,44 L264.16626,36.1313477 L268.935791,36.1313477 L268.876709,37.2861328 L265.621826,37.2861328 L265.621826,39.3164062 L268.715576,39.3164062 L268.715576,40.4711914 L265.621826,40.4711914 L265.621826,42.8398438 L268.994873,42.8398438 L268.946533,44 L264.16626,44 Z M270.35376,44 L270.35376,36.1313477 L271.809326,36.1313477 L271.809326,42.8398438 L275.101807,42.8398438 L275.058838,44 L270.35376,44 Z M276.106201,44 L276.106201,36.1313477 L280.875732,36.1313477 L280.81665,37.2861328 L277.561768,37.2861328 L277.561768,39.3164062 L280.655518,39.3164062 L280.655518,40.4711914 L277.561768,40.4711914 L277.561768,42.8398438 L280.934814,42.8398438 L280.886475,44 L276.106201,44 Z M282.293701,44 L282.293701,36.1313477 L284.012451,36.1313477 L286.391846,41.8139648 L288.787354,36.1313477 L290.484619,36.1313477 L290.484619,44 L289.141846,44 L289.141846,40.1113281 L289.184814,37.8823242 L288.986084,38.4731445 L286.971924,43.4628906 L285.72583,43.4628906 L283.754639,38.4462891 L283.555908,37.8554688 L283.604248,40.1328125 L283.604248,44 L282.293701,44 Z M292.181885,44 L292.181885,36.1313477 L296.951416,36.1313477 L296.892334,37.2861328 L293.637451,37.2861328 L293.637451,39.3164062 L296.731201,39.3164062 L296.731201,40.4711914 L293.637451,40.4711914 L293.637451,42.8398438 L297.010498,42.8398438 L296.962158,44 L292.181885,44 Z M298.369385,44 L298.369385,36.1313477 L299.91626,36.1313477 C300.195558,36.5681988 300.763098,37.4490494 301.618896,38.7739258 C302.474695,40.0988022 302.995686,40.9044582 303.181885,41.190918 C303.235596,41.2732752 303.327799,41.412027 303.458496,41.6071777 C303.589193,41.8023284 303.681396,41.9410803 303.735107,42.0234375 C303.710042,40.7952413 303.69751,40.1578778 303.69751,40.1113281 L303.69751,36.1313477 L305.02417,36.1313477 L305.02417,44 L303.455811,44 L299.905518,38.4677734 L299.647705,38.043457 C299.676351,38.9887743 299.690674,39.6529929 299.690674,40.0361328 L299.690674,44 L298.369385,44 Z M308.236084,44 L308.236084,37.296875 L305.942627,37.296875 L305.942627,36.1313477 L311.979736,36.1313477 L311.979736,37.296875 L309.697021,37.296875 L309.697021,44 L308.236084,44 Z M315.111084,44.1074219 C314.162186,44.1074219 313.311771,43.8889996 312.559814,43.4521484 L312.914307,42.2973633 C313.250897,42.4835621 313.617023,42.6339512 314.012695,42.7485352 C314.408368,42.8631191 314.794188,42.9204102 315.170166,42.9204102 C315.632082,42.9204102 315.9812,42.8210459 316.217529,42.6223145 C316.453859,42.423583 316.572021,42.1380227 316.572021,41.765625 C316.572021,41.2714819 316.242598,40.9295257 315.58374,40.7397461 C315.537191,40.7254231 315.406495,40.6869307 315.19165,40.6242676 C314.976806,40.5616045 314.775392,40.5007327 314.587402,40.4416504 C314.399413,40.3825681 314.264242,40.3369142 314.181885,40.3046875 C313.125564,39.9322898 312.597412,39.2376353 312.597412,38.2207031 C312.597412,37.5081345 312.850746,36.958498 313.357422,36.5717773 C313.864098,36.1850567 314.536373,35.9916992 315.374268,35.9916992 C316.323166,35.9916992 317.141354,36.186847 317.828857,36.5771484 L317.388428,37.640625 C316.686601,37.3255193 316.034915,37.1679688 315.43335,37.1679688 C315.000079,37.1679688 314.673341,37.2440585 314.453125,37.3962402 C314.232909,37.548422 314.115641,37.801756 314.101318,38.15625 C314.101318,38.5931011 314.31795,38.8777663 314.751221,39.0102539 C314.837159,39.0424806 315.04842,39.1123042 315.38501,39.2197266 C315.7216,39.327149 315.940022,39.3969725 316.040283,39.4291992 C316.760013,39.6655285 317.274738,39.9591454 317.584473,40.3100586 C317.894207,40.6609718 318.049072,41.1497365 318.049072,41.7763672 C318.049072,42.5247433 317.784101,43.1003398 317.25415,43.5031738 C316.7242,43.9060079 316.009851,44.1074219 315.111084,44.1074219 Z" id="INDIVIDUAL-ARRAY-ELE" fill="#4A4A4A"></path>
        <g id="Group" transform="translate(315.000000, 62.000000) rotate(-360.000000) translate(-315.000000, -62.000000) translate(296.000000, 51.000000)" stroke="#4A4A4A" stroke-linecap="square">
            <path d="M37,11 L37,21.5" id="Line-4-Copy" transform="translate(37.000000, 16.250000) scale(-1, -1) translate(-37.000000, -16.250000) "></path>
            <path d="M1,11 L1,21.5" id="Line-4-Copy-2" transform="translate(1.000000, 16.250000) scale(-1, -1) translate(-1.000000, -16.250000) "></path>
            <path d="M1,10 L37,10" id="Line-5-Copy" transform="translate(19.000000, 10.000000) scale(-1, -1) translate(-19.000000, -10.000000) "></path>
            <path d="M19,0 L19,10.5" id="Line-6-Copy" transform="translate(19.000000, 5.250000) scale(-1, -1) translate(-19.000000, -5.250000) "></path>
        </g>
        <g id="Group-Copy" transform="translate(165.500000, 61.500000) rotate(-360.000000) translate(-165.500000, -61.500000) translate(89.000000, 50.000000)" stroke="#4A4A4A" stroke-linecap="square">
            <path d="M152,12 L152,22.5" id="Line-4-Copy" transform="translate(152.000000, 17.250000) scale(-1, -1) translate(-152.000000, -17.250000) "></path>
            <path d="M1,12 L1,22.5" id="Line-4-Copy-2" transform="translate(1.000000, 17.250000) scale(-1, -1) translate(-1.000000, -17.250000) "></path>
            <path d="M1.078125,11 L152.013672,11" id="Line-5-Copy" transform="translate(76.545898, 11.000000) scale(-1, -1) translate(-76.545898, -11.000000) "></path>
            <path d="M76,0.5 L76,11" id="Line-6-Copy" transform="translate(76.000000, 5.750000) scale(-1, -1) translate(-76.000000, -5.750000) "></path>
        </g>
        <path d="M162.933594,154.107422 C161.984696,154.107422 161.134281,153.889 160.382324,153.452148 L160.736816,152.297363 C161.073407,152.483562 161.439533,152.633951 161.835205,152.748535 C162.230878,152.863119 162.616697,152.92041 162.992676,152.92041 C163.454592,152.92041 163.80371,152.821046 164.040039,152.622314 C164.276368,152.423583 164.394531,152.138023 164.394531,151.765625 C164.394531,151.271482 164.065107,150.929526 163.40625,150.739746 C163.3597,150.725423 163.229005,150.686931 163.01416,150.624268 C162.799315,150.561605 162.597901,150.500733 162.409912,150.44165 C162.221923,150.382568 162.086752,150.336914 162.004395,150.304688 C160.948074,149.93229 160.419922,149.237635 160.419922,148.220703 C160.419922,147.508134 160.673256,146.958498 161.179932,146.571777 C161.686607,146.185057 162.358883,145.991699 163.196777,145.991699 C164.145675,145.991699 164.963864,146.186847 165.651367,146.577148 L165.210938,147.640625 C164.509111,147.325519 163.857425,147.167969 163.255859,147.167969 C162.822589,147.167969 162.495851,147.244058 162.275635,147.39624 C162.055419,147.548422 161.938151,147.801756 161.923828,148.15625 C161.923828,148.593101 162.14046,148.877766 162.57373,149.010254 C162.659668,149.042481 162.870929,149.112304 163.20752,149.219727 C163.54411,149.327149 163.762532,149.396972 163.862793,149.429199 C164.582523,149.665529 165.097248,149.959145 165.406982,150.310059 C165.716717,150.660972 165.871582,151.149736 165.871582,151.776367 C165.871582,152.524743 165.606611,153.10034 165.07666,153.503174 C164.54671,153.906008 163.832361,154.107422 162.933594,154.107422 Z M172.988281,156.567383 C172.691079,156.352538 172.355389,155.998049 171.981201,155.503906 C171.607013,155.009763 171.301759,154.538902 171.06543,154.091309 C170.879231,154.105632 170.734213,154.112793 170.630371,154.112793 C169.445144,154.112793 168.509688,153.753828 167.823975,153.035889 C167.138262,152.317949 166.79541,151.326992 166.79541,150.062988 C166.79541,148.791823 167.139157,147.799971 167.82666,147.087402 C168.514164,146.374834 169.450515,146.018555 170.635742,146.018555 C171.820969,146.018555 172.75553,146.375729 173.439453,147.090088 C174.123376,147.804447 174.465332,148.797194 174.465332,150.068359 C174.465332,150.970708 174.284507,151.739662 173.922852,152.375244 C173.561196,153.010827 173.049157,153.475422 172.386719,153.769043 C172.934573,154.657068 173.446612,155.319497 173.922852,155.756348 L172.988281,156.567383 Z M170.635742,152.925781 C171.398441,152.925781 171.974038,152.677818 172.362549,152.181885 C172.75106,151.685951 172.945312,150.985031 172.945312,150.079102 C172.945312,149.16243 172.75106,148.451663 172.362549,147.946777 C171.974038,147.441892 171.400232,147.189453 170.641113,147.189453 C169.878414,147.189453 169.301027,147.442787 168.908936,147.949463 C168.516844,148.456139 168.320801,149.166011 168.320801,150.079102 C168.320801,150.98145 168.515949,151.681475 168.90625,152.179199 C169.296551,152.676923 169.873043,152.925781 170.635742,152.925781 Z M178.917969,154.112793 C177.886714,154.112793 177.104332,153.855878 176.570801,153.342041 C176.037269,152.828204 175.770508,152.104009 175.770508,151.169434 L175.770508,146.131348 L177.231445,146.131348 L177.231445,151.045898 C177.231445,151.701175 177.364826,152.179198 177.631592,152.47998 C177.898357,152.780763 178.336097,152.931152 178.944824,152.931152 C179.542809,152.931152 179.976073,152.779868 180.244629,152.477295 C180.513185,152.174722 180.647461,151.695804 180.647461,151.040527 L180.647461,146.131348 L182.103027,146.131348 L182.103027,151.180176 C182.103027,152.107589 181.830895,152.828204 181.286621,153.342041 C180.742348,153.855878 179.952805,154.112793 178.917969,154.112793 Z M182.769043,154 L185.664062,146.125977 L187.248535,146.125977 L190.100586,154 L188.607422,154 L187.828613,151.776367 L185.073242,151.776367 L184.289062,154 L182.769043,154 Z M185.438477,150.691406 L187.458008,150.691406 C186.813473,148.625315 186.482259,147.558269 186.464355,147.490234 L185.438477,150.691406 Z M190.847168,154 L190.847168,146.109863 L193.763672,146.109863 C194.161135,146.109863 194.505777,146.127767 194.797607,146.163574 C195.089438,146.199382 195.366942,146.264729 195.630127,146.359619 C195.893312,146.454509 196.106363,146.582519 196.269287,146.743652 C196.432211,146.904786 196.561116,147.115152 196.656006,147.374756 C196.750896,147.63436 196.79834,147.941404 196.79834,148.295898 C196.79834,149.341477 196.323898,150.02897 195.375,150.358398 C195.56836,150.576824 195.808267,150.981442 196.094727,151.572266 L197.265625,154 L195.675781,154 L194.757324,151.942871 C194.409992,151.205237 194.19515,150.768393 194.112793,150.632324 C194.05192,150.628743 193.849611,150.626953 193.505859,150.626953 L192.286621,150.616211 L192.286621,154 L190.847168,154 Z M193.892578,149.574219 C194.451175,149.574219 194.852212,149.474855 195.095703,149.276123 C195.339194,149.077392 195.460938,148.757815 195.460938,148.317383 C195.460938,147.930662 195.337404,147.645997 195.090332,147.463379 C194.84326,147.280761 194.465497,147.189453 193.957031,147.189453 L192.286621,147.189453 L192.286621,149.568848 C192.340332,149.568848 192.607094,149.569743 193.086914,149.571533 C193.566734,149.573324 193.835286,149.574219 193.892578,149.574219 Z M198.312988,154 L198.312988,146.131348 L203.08252,146.131348 L203.023438,147.286133 L199.768555,147.286133 L199.768555,149.316406 L202.862305,149.316406 L202.862305,150.471191 L199.768555,150.471191 L199.768555,152.839844 L203.141602,152.839844 L203.093262,154 L198.312988,154 Z M207.40625,154 L207.40625,146.131348 L209.86084,146.131348 C210.902837,146.131348 211.679848,146.283527 212.191895,146.587891 C212.703941,146.892254 212.959961,147.398922 212.959961,148.10791 C212.959961,148.222494 212.9528,148.335286 212.938477,148.446289 C212.924154,148.557292 212.891927,148.683512 212.841797,148.824951 C212.791666,148.966391 212.725424,149.0944 212.643066,149.208984 C212.560709,149.323568 212.446127,149.435465 212.299316,149.544678 C212.152506,149.653891 211.980632,149.738932 211.783691,149.799805 C212.270673,149.917969 212.643065,150.144448 212.900879,150.479248 C213.158693,150.814048 213.287598,151.226723 213.287598,151.717285 C213.287598,152.4585 213.025312,153.024249 212.500732,153.414551 C211.976153,153.804852 211.250167,154 210.322754,154 L207.40625,154 Z M208.861816,152.947266 L210.124023,152.947266 C211.241217,152.947266 211.799805,152.510421 211.799805,151.636719 C211.799805,151.196287 211.660158,150.879395 211.380859,150.686035 C211.101561,150.492675 210.670088,150.395996 210.086426,150.395996 L208.861816,150.395996 L208.861816,152.947266 Z M208.861816,149.380859 L210.10791,149.380859 C211.071131,149.380859 211.552734,149.013838 211.552734,148.279785 C211.552734,147.867999 211.413983,147.585124 211.136475,147.431152 C210.858967,147.27718 210.417646,147.200195 209.8125,147.200195 L208.861816,147.200195 L208.861816,149.380859 Z M214.52832,154 L214.52832,146.109863 L217.444824,146.109863 C217.842287,146.109863 218.186929,146.127767 218.47876,146.163574 C218.770591,146.199382 219.048094,146.264729 219.311279,146.359619 C219.574464,146.454509 219.787515,146.582519 219.950439,146.743652 C220.113363,146.904786 220.242268,147.115152 220.337158,147.374756 C220.432048,147.63436 220.479492,147.941404 220.479492,148.295898 C220.479492,149.341477 220.00505,150.02897 219.056152,150.358398 C219.249513,150.576824 219.489419,150.981442 219.775879,151.572266 L220.946777,154 L219.356934,154 L218.438477,151.942871 C218.091144,151.205237 217.876302,150.768393 217.793945,150.632324 C217.733073,150.628743 217.530763,150.626953 217.187012,150.626953 L215.967773,150.616211 L215.967773,154 L214.52832,154 Z M217.57373,149.574219 C218.132327,149.574219 218.533365,149.474855 218.776855,149.276123 C219.020346,149.077392 219.14209,148.757815 219.14209,148.317383 C219.14209,147.930662 219.018556,147.645997 218.771484,147.463379 C218.524413,147.280761 218.14665,147.189453 217.638184,147.189453 L215.967773,147.189453 L215.967773,149.568848 C216.021485,149.568848 216.288246,149.569743 216.768066,149.571533 C217.247887,149.573324 217.516439,149.574219 217.57373,149.574219 Z M221.188477,154 L224.083496,146.125977 L225.667969,146.125977 L228.52002,154 L227.026855,154 L226.248047,151.776367 L223.492676,151.776367 L222.708496,154 L221.188477,154 Z M223.85791,150.691406 L225.877441,150.691406 C225.232907,148.625315 224.901693,147.558269 224.883789,147.490234 L223.85791,150.691406 Z M232.720215,154.112793 C231.570795,154.112793 230.659509,153.751143 229.986328,153.027832 C229.313148,152.304521 228.976562,151.305508 228.976562,150.030762 C228.976562,148.820469 229.328366,147.849206 230.031982,147.116943 C230.735599,146.384681 231.656733,146.018555 232.79541,146.018555 C233.715662,146.018555 234.494463,146.231606 235.131836,146.657715 L234.675293,147.758789 C234.062985,147.382811 233.447106,147.194824 232.827637,147.194824 C232.104326,147.194824 231.53231,147.45532 231.111572,147.976318 C230.690834,148.497317 230.480469,149.196447 230.480469,150.07373 C230.480469,150.98324 230.683673,151.686846 231.090088,152.18457 C231.496503,152.682294 232.07568,152.931152 232.827637,152.931152 C233.486494,152.931152 234.139971,152.76644 234.788086,152.437012 L234.981445,153.575684 C234.37988,153.933758 233.626144,154.112793 232.720215,154.112793 Z M236.270508,154 L236.270508,146.131348 L237.731445,146.131348 L237.731445,149.67627 C237.985678,149.339679 238.505774,148.711268 239.291748,147.791016 C240.077722,146.870764 240.545898,146.317547 240.696289,146.131348 L242.42041,146.131348 L239.444824,149.670898 L242.608398,154 L240.900391,154 L238.333008,150.471191 L237.731445,150.976074 L237.731445,154 L236.270508,154 Z M243.209961,154 L243.209961,146.131348 L247.979492,146.131348 L247.92041,147.286133 L244.665527,147.286133 L244.665527,149.316406 L247.759277,149.316406 L247.759277,150.471191 L244.665527,150.471191 L244.665527,152.839844 L248.038574,152.839844 L247.990234,154 L243.209961,154 Z M250.91748,154 L250.91748,147.296875 L248.624023,147.296875 L248.624023,146.131348 L254.661133,146.131348 L254.661133,147.296875 L252.378418,147.296875 L252.378418,154 L250.91748,154 Z M257.79248,154.107422 C256.843582,154.107422 255.993168,153.889 255.241211,153.452148 L255.595703,152.297363 C255.932293,152.483562 256.298419,152.633951 256.694092,152.748535 C257.089764,152.863119 257.475584,152.92041 257.851562,152.92041 C258.313479,152.92041 258.662596,152.821046 258.898926,152.622314 C259.135255,152.423583 259.253418,152.138023 259.253418,151.765625 C259.253418,151.271482 258.923994,150.929526 258.265137,150.739746 C258.218587,150.725423 258.087892,150.686931 257.873047,150.624268 C257.658202,150.561605 257.456788,150.500733 257.268799,150.44165 C257.08081,150.382568 256.945638,150.336914 256.863281,150.304688 C255.806961,149.93229 255.278809,149.237635 255.278809,148.220703 C255.278809,147.508134 255.532143,146.958498 256.038818,146.571777 C256.545494,146.185057 257.217769,145.991699 258.055664,145.991699 C259.004562,145.991699 259.82275,146.186847 260.510254,146.577148 L260.069824,147.640625 C259.367998,147.325519 258.716312,147.167969 258.114746,147.167969 C257.681476,147.167969 257.354737,147.244058 257.134521,147.39624 C256.914306,147.548422 256.797038,147.801756 256.782715,148.15625 C256.782715,148.593101 256.999347,148.877766 257.432617,149.010254 C257.518555,149.042481 257.729816,149.112304 258.066406,149.219727 C258.402996,149.327149 258.621419,149.396972 258.72168,149.429199 C259.44141,149.665529 259.956135,149.959145 260.265869,150.310059 C260.575604,150.660972 260.730469,151.149736 260.730469,151.776367 C260.730469,152.524743 260.465497,153.10034 259.935547,153.503174 C259.405596,153.906008 258.691248,154.107422 257.79248,154.107422 Z" id="SQUARE-BRACKETS" fill="#4A4A4A"></path>
        <path d="M337,126 L83,126" id="Line-3" stroke="#4A4A4A" stroke-linecap="square"></path>
        <path d="M211,127 L211,139" id="Line-6-Copy" stroke="#4A4A4A" stroke-linecap="square" transform="translate(211.000000, 133.000000) scale(-1, -1) translate(-211.000000, -133.000000) "></path>
        <path id="Line-4" d="M83.5,101 L79,110 L88,110 L83.5,101 Z M84,124.5 L84,109.5 L84,109 L83,109 L83,109.5 L83,124.5 L83,125 L84,125 L84,124.5 Z" fill="#4A4A4A" fill-rule="nonzero"></path>
        <path id="Line-4-Copy-3" d="M337.25,101 L332.75,110 L341.75,110 L337.25,101 Z M337.75,124.5 L337.75,109.5 L337.75,109 L336.75,109 L336.75,109.5 L336.75,124.5 L336.75,125 L337.75,125 L337.75,124.5 Z" fill="#4A4A4A" fill-rule="nonzero"></path>
        <path d="M302.510498,83.6425781 C302.749757,83.6425781 302.924316,83.6840816 303.03418,83.7670898 C303.144044,83.8500981 303.198975,83.9819327 303.198975,84.1625977 C303.198975,84.3334969 303.147706,84.4616695 303.045166,84.5471191 C302.942626,84.6325688 302.788819,84.675293 302.58374,84.675293 L299.617432,84.675293 L299.617432,87.121582 C299.617432,87.9223673 299.72119,88.4497058 299.928711,88.7036133 C300.136232,88.9575208 300.491453,89.0844727 300.994385,89.0844727 C301.438723,89.0844727 301.970944,88.9550794 302.591064,88.6962891 C303.211185,88.4374987 303.594482,88.3081055 303.740967,88.3081055 C303.877686,88.3081055 303.993652,88.3569331 304.088867,88.4545898 C304.184083,88.5522466 304.231689,88.6718743 304.231689,88.8134766 C304.231689,88.9746102 304.171876,89.1149896 304.052246,89.2346191 C303.932617,89.3542486 303.728761,89.4702143 303.440674,89.5825195 C302.962156,89.7729502 302.531252,89.9121089 302.147949,90 C301.764647,90.0878911 301.404543,90.1318359 301.067627,90.1318359 C300.496335,90.1318359 300.016604,90.0402841 299.628418,89.8571777 C299.240232,89.6740714 298.950929,89.4018573 298.760498,89.0405273 C298.662841,88.8696281 298.593262,88.6669934 298.551758,88.4326172 C298.510254,88.198241 298.489502,87.8369165 298.489502,87.3486328 L298.489502,84.675293 L297.244385,84.675293 C297.039306,84.675293 296.890381,84.6350102 296.797607,84.5544434 C296.704834,84.4738766 296.658447,84.3432626 296.658447,84.1625977 C296.658447,83.9624013 296.721923,83.825684 296.848877,83.7524414 C296.975831,83.6791989 297.246824,83.6425781 297.661865,83.6425781 L298.489502,83.6425781 L298.489502,81.7529297 C298.489502,81.5429677 298.534668,81.38794 298.625,81.2878418 C298.715332,81.1877436 298.855712,81.1376953 299.046143,81.1376953 C299.260987,81.1376953 299.409912,81.1987299 299.49292,81.3208008 C299.575928,81.4428717 299.617432,81.7211892 299.617432,82.1557617 L299.617432,83.6425781 L302.510498,83.6425781 Z" id="Path" fill="#EF95EF" fill-rule="nonzero"></path>
        <path d="M308.794678,88.9672852 L311.226318,88.9672852 C311.416749,88.9672852 311.557128,89.007568 311.647461,89.0881348 C311.737793,89.1687016 311.782959,89.2968741 311.782959,89.4726562 C311.782959,89.6728526 311.740235,89.8107906 311.654785,89.8864746 C311.569336,89.9621586 311.411866,90 311.182373,90 L306.392334,90 C306.201903,90 306.057862,89.9560551 305.960205,89.8681641 C305.862548,89.780273 305.813721,89.6484384 305.813721,89.4726562 C305.813721,89.301757 305.863769,89.1748051 305.963867,89.0917969 C306.063965,89.0087886 306.218993,88.9672852 306.428955,88.9672852 L307.703369,88.9672852 L307.703369,84.2724609 L307.205322,84.2724609 C306.731687,84.2724609 306.43628,84.2346195 306.319092,84.1589355 C306.201904,84.0832516 306.143311,83.9453135 306.143311,83.7451172 C306.143311,83.5742179 306.190917,83.4460453 306.286133,83.3605957 C306.381348,83.2751461 306.52661,83.2324219 306.721924,83.2324219 L308.391846,83.2324219 C308.523682,83.2324219 308.623779,83.2580564 308.692139,83.3093262 C308.760498,83.360596 308.794678,83.4350581 308.794678,83.5327148 L308.794678,84.777832 C309.258547,84.1967744 309.741941,83.7646499 310.244873,83.4814453 C310.747805,83.1982408 311.289792,83.0566406 311.87085,83.0566406 C312.305422,83.0566406 312.656981,83.1445304 312.925537,83.3203125 C313.194093,83.4960946 313.328369,83.7231431 313.328369,84.0014648 C313.328369,84.1821298 313.261231,84.3420403 313.126953,84.4812012 C312.992675,84.620362 312.844972,84.6899414 312.683838,84.6899414 C312.571533,84.6899414 312.382326,84.6154793 312.116211,84.4665527 C311.850096,84.3176262 311.612062,84.2431641 311.4021,84.2431641 C311.021238,84.2431641 310.619631,84.3786608 310.197266,84.6496582 C309.7749,84.9206557 309.307376,85.3491182 308.794678,85.9350586 L308.794678,88.9672852 Z" id="Path" fill="#EF95EF" fill-rule="nonzero"></path>
        <path d="M316.690186,87.2973633 C316.690186,87.9126007 316.819579,88.361815 317.078369,88.6450195 C317.337159,88.9282241 317.747312,89.0698242 318.308838,89.0698242 C318.841067,89.0698242 319.296385,88.9013689 319.674805,88.5644531 C320.053225,88.2275374 320.242432,87.8051783 320.242432,87.2973633 L320.242432,84.2724609 L319.239014,84.2724609 C319.048583,84.2724609 318.910645,84.2321781 318.825195,84.1516113 C318.739746,84.0710445 318.697021,83.9453134 318.697021,83.7744141 C318.697021,83.5888663 318.743408,83.4521489 318.836182,83.3642578 C318.928956,83.2763667 319.07788,83.2324219 319.282959,83.2324219 L320.843018,83.2324219 C321.028565,83.2324219 321.159179,83.2727047 321.234863,83.3532715 C321.310547,83.4338383 321.348389,83.6303695 321.348389,83.9428711 L321.348389,88.9672852 L321.685303,88.9672852 C321.924562,88.9672852 322.096679,89.0063473 322.20166,89.0844727 C322.306641,89.162598 322.359131,89.2919913 322.359131,89.4726562 C322.359131,89.6484384 322.309083,89.780273 322.208984,89.8681641 C322.108886,89.9560551 321.963624,90 321.773193,90 L320.659912,90 C320.528076,90 320.425537,89.9731448 320.352295,89.9194336 C320.279052,89.8657224 320.242432,89.7924809 320.242432,89.699707 L320.242432,89.2016602 C319.773679,89.5629901 319.372072,89.8107903 319.037598,89.9450684 C318.703123,90.0793464 318.350344,90.1464844 317.979248,90.1464844 C317.17358,90.1464844 316.569338,89.9328635 316.166504,89.5056152 C315.76367,89.078367 315.562256,88.4326215 315.562256,87.5683594 L315.562256,84.2724609 L315.408447,84.2724609 C315.076414,84.2724609 314.849366,84.2333988 314.727295,84.1552734 C314.605224,84.077148 314.544189,83.9404307 314.544189,83.7451172 C314.544189,83.5742179 314.591796,83.4460453 314.687012,83.3605957 C314.782227,83.2751461 314.929931,83.2324219 315.130127,83.2324219 L316.236084,83.2324219 C316.406983,83.2324219 316.52539,83.2666012 316.591309,83.3349609 C316.657227,83.4033207 316.690186,83.5546863 316.690186,83.7890625 L316.690186,87.2973633 Z" id="Path" fill="#EF95EF" fill-rule="nonzero"></path>
        <path d="M325.039795,86.9384766 C325.078858,87.6416051 325.316892,88.1848125 325.753906,88.5681152 C326.19092,88.9514179 326.787838,89.1430664 327.544678,89.1430664 C328.11597,89.1430664 328.738522,88.99048 329.412354,88.6853027 C330.086185,88.3801254 330.493896,88.2275391 330.635498,88.2275391 C330.781983,88.2275391 330.904052,88.2739253 331.001709,88.3666992 C331.099366,88.4594731 331.148193,88.5742181 331.148193,88.7109375 C331.148193,88.8525398 331.096924,88.981933 330.994385,89.0991211 C330.891845,89.2163092 330.728273,89.3310541 330.503662,89.4433594 C330.015378,89.6826184 329.511233,89.865722 328.991211,89.9926758 C328.471189,90.1196295 327.954837,90.1831055 327.442139,90.1831055 C326.328852,90.1831055 325.437747,89.8620638 324.768799,89.2199707 C324.09985,88.5778776 323.765381,87.7270561 323.765381,86.6674805 C323.765381,85.5883735 324.119381,84.7143588 324.827393,84.0454102 C325.535404,83.3764615 326.458246,83.0419922 327.595947,83.0419922 C328.626226,83.0419922 329.480709,83.3544891 330.159424,83.9794922 C330.838138,84.6044953 331.17749,85.3613237 331.17749,86.25 C331.17749,86.5234389 331.120118,86.7065425 331.005371,86.7993164 C330.890624,86.8920903 330.579348,86.9384766 330.071533,86.9384766 L325.039795,86.9384766 Z" id="Path" fill="#EF95EF" fill-rule="nonzero"></path>
        <path d="M325.076416,85.9790039 L329.844482,85.9790039 C329.77124,85.3979463 329.528322,84.9304217 329.115723,84.576416 C328.703123,84.2224103 328.196536,84.0454102 327.595947,84.0454102 C326.94653,84.0454102 326.39966,84.2163069 325.955322,84.5581055 C325.510984,84.8999041 325.218018,85.3735321 325.076416,85.9790039 Z" id="Path" fill="#EF95EF" fill-rule="nonzero"></path>
        <path d="M262.754639,82.1411133 L262.611816,82.1630859 C262.580078,82.1679688 262.552002,82.1704102 262.527588,82.1704102 C262.37622,82.1704102 262.25293,82.127686 262.157715,82.0422363 C262.0625,81.9567867 262.014893,81.8432624 262.014893,81.7016602 C262.014893,81.5844721 262.056396,81.481934 262.139404,81.394043 C262.222413,81.3061519 262.34204,81.2402346 262.498291,81.1962891 L264.673584,80.6103516 C264.727295,80.5957031 264.779785,80.5847168 264.831055,80.5773926 C264.882324,80.5700683 264.934814,80.5664062 264.988525,80.5664062 C265.081299,80.5664062 265.154541,80.6091304 265.208252,80.6945801 C265.261963,80.7800297 265.288818,80.8959954 265.288818,81.0424805 L265.288818,88.9672852 L266.460693,88.9672852 C266.895266,88.9672852 267.171142,89.0026852 267.28833,89.0734863 C267.405518,89.1442875 267.464111,89.2773428 267.464111,89.4726562 C267.464111,89.6484384 267.415284,89.780273 267.317627,89.8681641 C267.21997,89.9560551 267.073487,90 266.878174,90 L262.498291,90 C262.302978,90 262.156495,89.9560551 262.058838,89.8681641 C261.961181,89.780273 261.912354,89.6484384 261.912354,89.4726562 C261.912354,89.2773428 261.970947,89.1442875 262.088135,89.0734863 C262.205323,89.0026852 262.481199,88.9672852 262.915771,88.9672852 L264.131592,88.9672852 L264.131592,81.8115234 L262.754639,82.1411133 Z" id="Path" fill="#619EE6" fill-rule="nonzero"></path>
        <path d="M273.506592,90.2416992 C272.588618,90.2416992 271.859866,89.8083539 271.320312,88.9416504 C270.780759,88.0749468 270.510986,86.8872146 270.510986,85.378418 C270.510986,83.8745042 270.780759,82.6892133 271.320312,81.8225098 C271.859866,80.9558062 272.588618,80.5224609 273.506592,80.5224609 C274.424565,80.5224609 275.154538,80.9570269 275.696533,81.8261719 C276.238528,82.6953168 276.509521,83.879387 276.509521,85.378418 C276.509521,86.8774489 276.238528,88.0627398 275.696533,88.9343262 C275.154538,89.8059126 274.424565,90.2416992 273.506592,90.2416992 Z M273.506592,81.5698242 C272.945066,81.5698242 272.508058,81.9018521 272.195557,82.565918 C271.883055,83.2299838 271.726807,84.1674744 271.726807,85.378418 C271.726807,86.5942444 271.883055,87.5353971 272.195557,88.2019043 C272.508058,88.8684115 272.945066,89.2016602 273.506592,89.2016602 C274.073001,89.2016602 274.51245,88.8684115 274.824951,88.2019043 C275.137453,87.5353971 275.293701,86.5942444 275.293701,85.378418 C275.293701,84.1674744 275.137453,83.2299838 274.824951,82.565918 C274.51245,81.9018521 274.073001,81.5698242 273.506592,81.5698242 Z" id="Combined-Shape" fill="#619EE6" fill-rule="nonzero"></path>
        <path d="M93.0012207,81.6430664 C93.0354006,81.506347 93.0781247,81.4172365 93.1293945,81.3757324 C93.1806643,81.3342283 93.2673334,81.3134766 93.3894043,81.3134766 L94.6931152,81.3134766 C94.7517093,81.3134766 94.7993162,81.3269042 94.8359375,81.3537598 C94.8725588,81.3806154 94.8908691,81.413574 94.8908691,81.4526367 C94.8908691,81.4819337 94.8872071,81.5100096 94.8798828,81.5368652 C94.8725586,81.5637208 94.8615723,81.5893553 94.8469238,81.6137695 L93.1916504,85.0341797 C93.1672362,85.0976566 93.1330569,85.1464842 93.0891113,85.1806641 C93.0451658,85.2148439 92.9963382,85.2319336 92.942627,85.2319336 C92.9084471,85.2319336 92.8840333,85.2307129 92.8693848,85.2282715 C92.8547363,85.2258301 92.8376466,85.222168 92.8181152,85.2172852 L92.4006348,85.0488281 C92.332275,85.0292968 92.2797853,85.0012209 92.2431641,84.9645996 C92.2065428,84.9279783 92.1882324,84.8852542 92.1882324,84.8364258 C92.1882324,84.8071288 92.1979979,84.7631839 92.2175293,84.7045898 L92.2175293,84.675293 L93.0012207,81.6430664 Z" id="Path" fill="#F5A623" fill-rule="nonzero"></path>
        <path d="M100.003174,86.9384766 C100.042237,87.6416051 100.280271,88.1848125 100.717285,88.5681152 C101.154299,88.9514179 101.751217,89.1430664 102.508057,89.1430664 C103.079349,89.1430664 103.701901,88.99048 104.375732,88.6853027 C105.049564,88.3801254 105.457275,88.2275391 105.598877,88.2275391 C105.745362,88.2275391 105.867431,88.2739253 105.965088,88.3666992 C106.062745,88.4594731 106.111572,88.5742181 106.111572,88.7109375 C106.111572,88.8525398 106.060303,88.981933 105.957764,89.0991211 C105.855224,89.2163092 105.691652,89.3310541 105.467041,89.4433594 C104.978757,89.6826184 104.474612,89.865722 103.95459,89.9926758 C103.434568,90.1196295 102.918215,90.1831055 102.405518,90.1831055 C101.292231,90.1831055 100.401126,89.8620638 99.7321777,89.2199707 C99.0632291,88.5778776 98.7287598,87.7270561 98.7287598,86.6674805 C98.7287598,85.5883735 99.0827601,84.7143588 99.7907715,84.0454102 C100.498783,83.3764615 101.421625,83.0419922 102.559326,83.0419922 C103.589605,83.0419922 104.444088,83.3544891 105.122803,83.9794922 C105.801517,84.6044953 106.140869,85.3613237 106.140869,86.25 C106.140869,86.5234389 106.083497,86.7065425 105.96875,86.7993164 C105.854003,86.8920903 105.542727,86.9384766 105.034912,86.9384766 L100.003174,86.9384766 Z M100.039795,85.9790039 L104.807861,85.9790039 C104.734619,85.3979463 104.491701,84.9304217 104.079102,84.576416 C103.666502,84.2224103 103.159915,84.0454102 102.559326,84.0454102 C101.909909,84.0454102 101.363039,84.2163069 100.918701,84.5581055 C100.474363,84.8999041 100.181397,85.3735321 100.039795,85.9790039 Z" id="Combined-Shape" fill="#F5A623" fill-rule="nonzero"></path>
        <path d="M110.989502,81.4672852 L109.744385,81.4672852 C109.27075,81.4672852 108.974122,81.4294437 108.854492,81.3537598 C108.734863,81.2780758 108.675049,81.1401377 108.675049,80.9399414 C108.675049,80.7641593 108.725097,80.6323247 108.825195,80.5444336 C108.925293,80.4565425 109.070556,80.4125977 109.260986,80.4125977 L111.677979,80.4125977 C111.809815,80.4125977 111.912353,80.4394529 111.985596,80.4931641 C112.058838,80.5468753 112.095459,80.6201167 112.095459,80.7128906 L112.095459,88.9672852 L114.395264,88.9672852 C114.580811,88.9672852 114.716308,89.007568 114.801758,89.0881348 C114.887207,89.1687016 114.929932,89.2968741 114.929932,89.4726562 C114.929932,89.6728526 114.888428,89.8107906 114.80542,89.8864746 C114.722412,89.9621586 114.566163,90 114.33667,90 L108.931396,90 C108.740966,90 108.595704,89.9560551 108.495605,89.8681641 C108.395507,89.780273 108.345459,89.6484384 108.345459,89.4726562 C108.345459,89.301757 108.396728,89.1748051 108.499268,89.0917969 C108.601807,89.0087886 108.755614,88.9672852 108.960693,88.9672852 L110.989502,88.9672852 L110.989502,81.4672852 Z" id="Path" fill="#F5A623" fill-rule="nonzero"></path>
        <path d="M118.006104,86.9384766 C118.045166,87.6416051 118.283201,88.1848125 118.720215,88.5681152 C119.157229,88.9514179 119.754147,89.1430664 120.510986,89.1430664 C121.082278,89.1430664 121.704831,88.99048 122.378662,88.6853027 C123.052494,88.3801254 123.460204,88.2275391 123.601807,88.2275391 C123.748292,88.2275391 123.870361,88.2739253 123.968018,88.3666992 C124.065674,88.4594731 124.114502,88.5742181 124.114502,88.7109375 C124.114502,88.8525398 124.063233,88.981933 123.960693,89.0991211 C123.858154,89.2163092 123.694581,89.3310541 123.469971,89.4433594 C122.981687,89.6826184 122.477542,89.865722 121.95752,89.9926758 C121.437497,90.1196295 120.921145,90.1831055 120.408447,90.1831055 C119.29516,90.1831055 118.404056,89.8620638 117.735107,89.2199707 C117.066159,88.5778776 116.731689,87.7270561 116.731689,86.6674805 C116.731689,85.5883735 117.08569,84.7143588 117.793701,84.0454102 C118.501713,83.3764615 119.424555,83.0419922 120.562256,83.0419922 C121.592534,83.0419922 122.447018,83.3544891 123.125732,83.9794922 C123.804447,84.6044953 124.143799,85.3613237 124.143799,86.25 C124.143799,86.5234389 124.086426,86.7065425 123.97168,86.7993164 C123.856933,86.8920903 123.545657,86.9384766 123.037842,86.9384766 L118.006104,86.9384766 Z M118.042725,85.9790039 L122.810791,85.9790039 C122.737548,85.3979463 122.494631,84.9304217 122.082031,84.576416 C121.669432,84.2224103 121.162845,84.0454102 120.562256,84.0454102 C119.912839,84.0454102 119.365969,84.2163069 118.921631,84.5581055 C118.477293,84.8999041 118.184327,85.3735321 118.042725,85.9790039 Z" id="Combined-Shape" fill="#F5A623" fill-rule="nonzero"></path>
        <path d="M132.200439,85.9204102 C132.200439,85.2319302 132.138184,84.7668469 132.013672,84.5251465 C131.88916,84.2834461 131.675539,84.1625977 131.372803,84.1625977 C131.011473,84.1625977 130.72461,84.3188461 130.512207,84.6313477 C130.299804,84.9438492 130.193604,85.3735324 130.193604,85.9204102 L130.193604,88.9672852 L130.325439,88.9672852 C130.623293,88.9672852 130.822265,89.0026852 130.922363,89.0734863 C131.022461,89.1442875 131.07251,89.2773428 131.07251,89.4726562 C131.07251,89.6484384 131.031006,89.780273 130.947998,89.8681641 C130.86499,89.9560551 130.738038,90 130.567139,90 L129.636963,90 C129.427001,90 129.28418,89.9511724 129.208496,89.8535156 C129.132812,89.7558589 129.094971,89.5459 129.094971,89.2236328 L129.094971,85.3491211 C129.094971,84.9829083 129.011964,84.6936046 128.845947,84.4812012 C128.679931,84.2687978 128.452882,84.1625977 128.164795,84.1625977 C127.945067,84.1625977 127.743653,84.2272943 127.560547,84.3566895 C127.37744,84.4860846 127.219971,84.6777331 127.088135,84.9316406 L127.088135,88.9672852 L127.359131,88.9672852 C127.652101,88.9672852 127.849853,89.0039059 127.952393,89.0771484 C128.054932,89.150391 128.106201,89.2822256 128.106201,89.4726562 C128.106201,89.6728526 128.064698,89.8107906 127.981689,89.8864746 C127.898681,89.9621586 127.739991,90 127.505615,90 L125.557373,90 C125.366942,90 125.226563,89.9572758 125.13623,89.8718262 C125.045898,89.7863765 125.000732,89.6533212 125.000732,89.4726562 C125.000732,89.2773428 125.058105,89.1442875 125.172852,89.0734863 C125.287598,89.0026852 125.510985,88.9672852 125.843018,88.9672852 L125.989502,88.9672852 L125.989502,84.2724609 L125.857666,84.2724609 C125.515867,84.2724609 125.282715,84.2333988 125.158203,84.1552734 C125.033691,84.077148 124.971436,83.9404307 124.971436,83.7451172 C124.971436,83.5742179 125.020263,83.4460453 125.11792,83.3605957 C125.215577,83.2751461 125.36206,83.2324219 125.557373,83.2324219 L126.677979,83.2324219 C126.839112,83.2324219 126.945312,83.2604978 126.996582,83.3166504 C127.047852,83.372803 127.078369,83.49121 127.088135,83.671875 C127.288331,83.4570302 127.503173,83.2983404 127.732666,83.1958008 C127.962159,83.0932612 128.220946,83.0419922 128.509033,83.0419922 C128.850832,83.0419922 129.132811,83.1164543 129.35498,83.2653809 C129.57715,83.4143074 129.741943,83.6401352 129.849365,83.9428711 C130.054444,83.6352524 130.291258,83.4082039 130.559814,83.2617188 C130.82837,83.1152336 131.135985,83.0419922 131.482666,83.0419922 C132.112552,83.0419922 132.572752,83.2470683 132.863281,83.6572266 C133.15381,84.0673849 133.299072,84.7314407 133.299072,85.6494141 L133.299072,88.9672852 L133.41626,88.9672852 C133.718996,88.9672852 133.92163,89.0039059 134.02417,89.0771484 C134.126709,89.150391 134.177979,89.2822256 134.177979,89.4726562 C134.177979,89.6484384 134.134034,89.780273 134.046143,89.8681641 C133.958252,89.9560551 133.828858,90 133.657959,90 L132.771729,90 C132.576415,90 132.432374,89.9414068 132.3396,89.8242188 C132.246826,89.7070307 132.200439,89.5214856 132.200439,89.2675781 L132.200439,85.9204102 Z" id="Path" fill="#F5A623" fill-rule="nonzero"></path>
        <path d="M136.009033,86.9384766 C136.048096,87.6416051 136.286131,88.1848125 136.723145,88.5681152 C137.160158,88.9514179 137.757076,89.1430664 138.513916,89.1430664 C139.085208,89.1430664 139.70776,88.99048 140.381592,88.6853027 C141.055423,88.3801254 141.463134,88.2275391 141.604736,88.2275391 C141.751221,88.2275391 141.873291,88.2739253 141.970947,88.3666992 C142.068604,88.4594731 142.117432,88.5742181 142.117432,88.7109375 C142.117432,88.8525398 142.066163,88.981933 141.963623,89.0991211 C141.861083,89.2163092 141.697511,89.3310541 141.4729,89.4433594 C140.984617,89.6826184 140.480471,89.865722 139.960449,89.9926758 C139.440427,90.1196295 138.924075,90.1831055 138.411377,90.1831055 C137.29809,90.1831055 136.406986,89.8620638 135.738037,89.2199707 C135.069088,88.5778776 134.734619,87.7270561 134.734619,86.6674805 C134.734619,85.5883735 135.08862,84.7143588 135.796631,84.0454102 C136.504642,83.3764615 137.427485,83.0419922 138.565186,83.0419922 C139.595464,83.0419922 140.449948,83.3544891 141.128662,83.9794922 C141.807376,84.6044953 142.146729,85.3613237 142.146729,86.25 C142.146729,86.5234389 142.089356,86.7065425 141.974609,86.7993164 C141.859863,86.8920903 141.548587,86.9384766 141.040771,86.9384766 L136.009033,86.9384766 Z M136.045654,85.9790039 L140.813721,85.9790039 C140.740478,85.3979463 140.497561,84.9304217 140.084961,84.576416 C139.672361,84.2224103 139.165774,84.0454102 138.565186,84.0454102 C137.915768,84.0454102 137.368899,84.2163069 136.924561,84.5581055 C136.480222,84.8999041 136.187257,85.3735321 136.045654,85.9790039 Z" id="Combined-Shape" fill="#F5A623" fill-rule="nonzero"></path>
        <path d="M144.761475,88.9672852 L144.761475,84.2724609 L144.622314,84.2724609 C144.290282,84.2724609 144.062012,84.2333988 143.9375,84.1552734 C143.812988,84.077148 143.750732,83.9404307 143.750732,83.7451172 C143.750732,83.5644522 143.802001,83.4338383 143.904541,83.3532715 C144.007081,83.2727047 144.173095,83.2324219 144.402588,83.2324219 L145.449951,83.2324219 C145.581788,83.2324219 145.684326,83.2592771 145.757568,83.3129883 C145.830811,83.3666995 145.867432,83.4399409 145.867432,83.5327148 L145.867432,84.0307617 C146.223879,83.6987288 146.576658,83.4533699 146.925781,83.2946777 C147.274904,83.1359855 147.637449,83.0566406 148.013428,83.0566406 C148.750736,83.0566406 149.330564,83.2861305 149.75293,83.7451172 C150.175295,84.2041039 150.386475,84.8388631 150.386475,85.6494141 L150.386475,88.9672852 L150.730713,88.9672852 C150.974855,88.9672852 151.150634,89.007568 151.258057,89.0881348 C151.365479,89.1687016 151.419189,89.2968741 151.419189,89.4726562 C151.419189,89.6630869 151.361817,89.7985836 151.24707,89.8791504 C151.132324,89.9597172 150.928468,90 150.635498,90 L149.016846,90 C148.704344,90 148.504151,89.9633793 148.41626,89.8901367 C148.328369,89.8168942 148.284424,89.6777354 148.284424,89.4726562 C148.284424,89.2822256 148.335693,89.150391 148.438232,89.0771484 C148.540772,89.0039059 148.733641,88.9672852 149.016846,88.9672852 L149.273193,88.9672852 L149.273193,85.9204102 C149.273193,85.3491182 149.1438,84.9133316 148.88501,84.6130371 C148.626219,84.3127426 148.250247,84.1625977 147.75708,84.1625977 C147.259031,84.1625977 146.819582,84.331053 146.438721,84.6679688 C146.057859,85.0048845 145.867432,85.4223608 145.867432,85.9204102 L145.867432,88.9672852 L146.123779,88.9672852 C146.41675,88.9672852 146.614501,89.0039059 146.717041,89.0771484 C146.819581,89.150391 146.87085,89.2822256 146.87085,89.4726562 C146.87085,89.6777354 146.826905,89.8168942 146.739014,89.8901367 C146.651123,89.9633793 146.436281,90 146.094482,90 L144.365967,90 C144.16577,90 144.015626,89.9572758 143.915527,89.8718262 C143.815429,89.7863765 143.765381,89.6533212 143.765381,89.4726562 C143.765381,89.2773428 143.822753,89.1442875 143.9375,89.0734863 C144.052247,89.0026852 144.275633,88.9672852 144.607666,88.9672852 L144.761475,88.9672852 Z" id="Path" fill="#F5A623" fill-rule="nonzero"></path>
        <path d="M158.487061,83.6425781 C158.72632,83.6425781 158.900878,83.6840816 159.010742,83.7670898 C159.120606,83.8500981 159.175537,83.9819327 159.175537,84.1625977 C159.175537,84.3334969 159.124268,84.4616695 159.021729,84.5471191 C158.919189,84.6325688 158.765382,84.675293 158.560303,84.675293 L155.593994,84.675293 L155.593994,87.121582 C155.593994,87.9223673 155.697753,88.4497058 155.905273,88.7036133 C156.112794,88.9575208 156.468015,89.0844727 156.970947,89.0844727 C157.415285,89.0844727 157.947507,88.9550794 158.567627,88.6962891 C159.187747,88.4374987 159.571044,88.3081055 159.717529,88.3081055 C159.854249,88.3081055 159.970214,88.3569331 160.06543,88.4545898 C160.160645,88.5522466 160.208252,88.6718743 160.208252,88.8134766 C160.208252,88.9746102 160.148438,89.1149896 160.028809,89.2346191 C159.909179,89.3542486 159.705324,89.4702143 159.417236,89.5825195 C158.938718,89.7729502 158.507814,89.9121089 158.124512,90 C157.741209,90.0878911 157.381105,90.1318359 157.044189,90.1318359 C156.472898,90.1318359 155.993166,90.0402841 155.60498,89.8571777 C155.216795,89.6740714 154.927491,89.4018573 154.737061,89.0405273 C154.639404,88.8696281 154.569824,88.6669934 154.52832,88.4326172 C154.486816,88.198241 154.466064,87.8369165 154.466064,87.3486328 L154.466064,84.675293 L153.220947,84.675293 C153.015868,84.675293 152.866944,84.6350102 152.77417,84.5544434 C152.681396,84.4738766 152.63501,84.3432626 152.63501,84.1625977 C152.63501,83.9624013 152.698486,83.825684 152.825439,83.7524414 C152.952393,83.6791989 153.223387,83.6425781 153.638428,83.6425781 L154.466064,83.6425781 L154.466064,81.7529297 C154.466064,81.5429677 154.51123,81.38794 154.601562,81.2878418 C154.691895,81.1877436 154.832274,81.1376953 155.022705,81.1376953 C155.23755,81.1376953 155.386474,81.1987299 155.469482,81.3208008 C155.552491,81.4428717 155.593994,81.7211892 155.593994,82.1557617 L155.593994,83.6425781 L158.487061,83.6425781 Z" id="Path" fill="#F5A623" fill-rule="nonzero"></path>
        <path d="M172.014893,86.9384766 C172.053955,87.6416051 172.29199,88.1848125 172.729004,88.5681152 C173.166018,88.9514179 173.762936,89.1430664 174.519775,89.1430664 C175.091067,89.1430664 175.71362,88.99048 176.387451,88.6853027 C177.061283,88.3801254 177.468993,88.2275391 177.610596,88.2275391 C177.757081,88.2275391 177.87915,88.2739253 177.976807,88.3666992 C178.074463,88.4594731 178.123291,88.5742181 178.123291,88.7109375 C178.123291,88.8525398 178.072022,88.981933 177.969482,89.0991211 C177.866943,89.2163092 177.70337,89.3310541 177.47876,89.4433594 C176.990476,89.6826184 176.486331,89.865722 175.966309,89.9926758 C175.446286,90.1196295 174.929934,90.1831055 174.417236,90.1831055 C173.30395,90.1831055 172.412845,89.8620638 171.743896,89.2199707 C171.074948,88.5778776 170.740479,87.7270561 170.740479,86.6674805 C170.740479,85.5883735 171.094479,84.7143588 171.80249,84.0454102 C172.510502,83.3764615 173.433344,83.0419922 174.571045,83.0419922 C175.601324,83.0419922 176.455807,83.3544891 177.134521,83.9794922 C177.813236,84.6044953 178.152588,85.3613237 178.152588,86.25 C178.152588,86.5234389 178.095215,86.7065425 177.980469,86.7993164 C177.865722,86.8920903 177.554446,86.9384766 177.046631,86.9384766 L172.014893,86.9384766 Z M172.051514,85.9790039 L176.81958,85.9790039 C176.746338,85.3979463 176.50342,84.9304217 176.09082,84.576416 C175.678221,84.2224103 175.171634,84.0454102 174.571045,84.0454102 C173.921628,84.0454102 173.374758,84.2163069 172.93042,84.5581055 C172.486082,84.8999041 172.193116,85.3735321 172.051514,85.9790039 Z" id="Combined-Shape" fill="#F5A623" fill-rule="nonzero"></path>
        <path d="M181.887939,88.9672852 L182.100342,88.9672852 C182.344484,88.9672852 182.534911,89.0124507 182.671631,89.1027832 C182.80835,89.1931157 182.876709,89.3212882 182.876709,89.4873047 C182.876709,89.6630868 182.816895,89.7924801 182.697266,89.8754883 C182.577636,89.9584965 182.388429,90 182.129639,90 L180.108154,90 C179.961669,90 179.8396,89.9511724 179.741943,89.8535156 C179.644287,89.7558589 179.595459,89.6337898 179.595459,89.4873047 C179.595459,89.3066397 179.661376,89.1748051 179.793213,89.0917969 C179.925049,89.0087886 180.135008,88.9672852 180.423096,88.9672852 L180.56958,88.9672852 L182.942627,86.5356445 L180.613525,84.2724609 L180.510986,84.2724609 C180.227782,84.2724609 180.031251,84.2346195 179.921387,84.1589355 C179.811523,84.0832516 179.756592,83.9501963 179.756592,83.7597656 C179.756592,83.5595693 179.818847,83.4216312 179.943359,83.3459473 C180.067872,83.2702633 180.305906,83.2324219 180.657471,83.2324219 L182.158936,83.2324219 C182.422609,83.2324219 182.614257,83.2751461 182.733887,83.3605957 C182.853516,83.4460453 182.91333,83.5791007 182.91333,83.7597656 C182.91333,83.9257821 182.846192,84.0527339 182.711914,84.140625 C182.577636,84.2285161 182.383546,84.2724609 182.129639,84.2724609 L182.071045,84.2724609 L183.645752,85.8178711 L185.147217,84.2724609 L184.993408,84.2724609 C184.719969,84.2724609 184.517335,84.2321781 184.385498,84.1516113 C184.253661,84.0710445 184.187744,83.9453134 184.187744,83.7744141 C184.187744,83.5839834 184.246337,83.4460453 184.363525,83.3605957 C184.480713,83.2751461 184.671141,83.2324219 184.934814,83.2324219 L186.839111,83.2324219 C186.990479,83.2324219 187.113769,83.2800288 187.208984,83.3752441 C187.3042,83.4704595 187.351807,83.5937492 187.351807,83.7451172 C187.351807,83.9257822 187.290772,84.0588375 187.168701,84.1442871 C187.04663,84.2297368 186.85132,84.2724609 186.582764,84.2724609 L186.377686,84.2724609 L184.275635,86.4624023 L186.839111,88.9672852 L186.912354,88.9672852 C187.097901,88.9672852 187.241943,89.0124507 187.344482,89.1027832 C187.447022,89.1931157 187.498291,89.3212882 187.498291,89.4873047 C187.498291,89.6826182 187.439698,89.8168942 187.32251,89.8901367 C187.205322,89.9633793 186.963625,90 186.597412,90 L185.103271,90 C184.844481,90 184.654053,89.9584965 184.531982,89.8754883 C184.409911,89.7924801 184.348877,89.6630868 184.348877,89.4873047 C184.348877,89.3261711 184.40747,89.1992192 184.524658,89.1064453 C184.641846,89.0136714 184.802977,88.9672852 185.008057,88.9672852 L185.418213,88.9672852 L183.57251,87.1655273 L181.887939,88.9672852 Z" id="Path" fill="#F5A623" fill-rule="nonzero"></path>
        <path d="M194.177979,89.0698242 C193.777586,89.4311542 193.341799,89.7070303 192.870605,89.8974609 C192.399412,90.0878916 191.914797,90.1831055 191.416748,90.1831055 C190.689205,90.1831055 190.102053,89.9804708 189.655273,89.5751953 C189.208494,89.1699198 188.985107,88.6425814 188.985107,87.9931641 C188.985107,87.2216758 189.281735,86.6235373 189.875,86.1987305 C190.468265,85.7739237 191.301997,85.5615234 192.376221,85.5615234 C192.659425,85.5615234 192.945067,85.5798338 193.233154,85.6164551 C193.521242,85.6530764 193.816649,85.7104488 194.119385,85.7885742 L194.119385,85.7373047 C194.119385,85.1757784 193.985109,84.7607435 193.716553,84.4921875 C193.447997,84.2236315 193.03052,84.0893555 192.464111,84.0893555 C192.08325,84.0893555 191.65845,84.1918935 191.189697,84.3969727 C190.720945,84.6020518 190.410889,84.7045898 190.259521,84.7045898 C190.117919,84.7045898 190.000733,84.6472174 189.907959,84.5324707 C189.815185,84.417724 189.768799,84.2700204 189.768799,84.0893555 C189.768799,83.8012681 190.038572,83.5571299 190.578125,83.3569336 C191.117678,83.1567373 191.807369,83.0566406 192.647217,83.0566406 C193.506596,83.0566406 194.156004,83.2751443 194.595459,83.7121582 C195.034914,84.1491721 195.254639,84.7949176 195.254639,85.6494141 L195.254639,88.9672852 L195.613525,88.9672852 C195.960207,88.9672852 196.192138,89.0039059 196.309326,89.0771484 C196.426514,89.150391 196.485107,89.2822256 196.485107,89.4726562 C196.485107,89.6484384 196.43628,89.780273 196.338623,89.8681641 C196.240966,89.9560551 196.094483,90 195.89917,90 L194.749268,90 C194.612548,90 194.500245,89.9584965 194.412354,89.8754883 C194.324462,89.7924801 194.265869,89.6728523 194.236572,89.5166016 L194.177979,89.0698242 Z M194.119385,86.7626953 C193.850829,86.6748042 193.590822,86.6101076 193.339355,86.5686035 C193.087889,86.5270994 192.837648,86.5063477 192.588623,86.5063477 C191.836666,86.5063477 191.24341,86.6332995 190.808838,86.887207 C190.374265,87.1411146 190.156982,87.482908 190.156982,87.9125977 C190.156982,88.2446306 190.292479,88.5180653 190.563477,88.7329102 C190.834474,88.947755 191.17993,89.0551758 191.599854,89.0551758 C192.219974,89.0551758 192.794919,88.8928239 193.324707,88.5681152 C193.854495,88.2434066 194.119385,87.9052752 194.119385,87.5537109 L194.119385,86.7626953 Z" id="Combined-Shape" fill="#F5A623" fill-rule="nonzero"></path>
        <path d="M204.212158,85.9204102 C204.212158,85.2319302 204.149903,84.7668469 204.025391,84.5251465 C203.900878,84.2834461 203.687257,84.1625977 203.384521,84.1625977 C203.023192,84.1625977 202.736329,84.3188461 202.523926,84.6313477 C202.311522,84.9438492 202.205322,85.3735324 202.205322,85.9204102 L202.205322,88.9672852 L202.337158,88.9672852 C202.635011,88.9672852 202.833984,89.0026852 202.934082,89.0734863 C203.03418,89.1442875 203.084229,89.2773428 203.084229,89.4726562 C203.084229,89.6484384 203.042725,89.780273 202.959717,89.8681641 C202.876709,89.9560551 202.749757,90 202.578857,90 L201.648682,90 C201.43872,90 201.295899,89.9511724 201.220215,89.8535156 C201.144531,89.7558589 201.106689,89.5459 201.106689,89.2236328 L201.106689,85.3491211 C201.106689,84.9829083 201.023682,84.6936046 200.857666,84.4812012 C200.69165,84.2687978 200.464601,84.1625977 200.176514,84.1625977 C199.956786,84.1625977 199.755372,84.2272943 199.572266,84.3566895 C199.389159,84.4860846 199.23169,84.6777331 199.099854,84.9316406 L199.099854,88.9672852 L199.37085,88.9672852 C199.66382,88.9672852 199.861572,89.0039059 199.964111,89.0771484 C200.066651,89.150391 200.11792,89.2822256 200.11792,89.4726562 C200.11792,89.6728526 200.076416,89.8107906 199.993408,89.8864746 C199.9104,89.9621586 199.75171,90 199.517334,90 L197.569092,90 C197.378661,90 197.238282,89.9572758 197.147949,89.8718262 C197.057617,89.7863765 197.012451,89.6533212 197.012451,89.4726562 C197.012451,89.2773428 197.069824,89.1442875 197.18457,89.0734863 C197.299317,89.0026852 197.522703,88.9672852 197.854736,88.9672852 L198.001221,88.9672852 L198.001221,84.2724609 L197.869385,84.2724609 C197.527586,84.2724609 197.294434,84.2333988 197.169922,84.1552734 C197.04541,84.077148 196.983154,83.9404307 196.983154,83.7451172 C196.983154,83.5742179 197.031982,83.4460453 197.129639,83.3605957 C197.227295,83.2751461 197.373778,83.2324219 197.569092,83.2324219 L198.689697,83.2324219 C198.850831,83.2324219 198.957031,83.2604978 199.008301,83.3166504 C199.059571,83.372803 199.090088,83.49121 199.099854,83.671875 C199.30005,83.4570302 199.514891,83.2983404 199.744385,83.1958008 C199.973878,83.0932612 200.232665,83.0419922 200.520752,83.0419922 C200.862551,83.0419922 201.14453,83.1164543 201.366699,83.2653809 C201.588868,83.4143074 201.753662,83.6401352 201.861084,83.9428711 C202.066163,83.6352524 202.302977,83.4082039 202.571533,83.2617188 C202.840089,83.1152336 203.147703,83.0419922 203.494385,83.0419922 C204.124271,83.0419922 204.584471,83.2470683 204.875,83.6572266 C205.165529,84.0673849 205.310791,84.7314407 205.310791,85.6494141 L205.310791,88.9672852 L205.427979,88.9672852 C205.730714,88.9672852 205.933349,89.0039059 206.035889,89.0771484 C206.138428,89.150391 206.189697,89.2822256 206.189697,89.4726562 C206.189697,89.6484384 206.145752,89.780273 206.057861,89.8681641 C205.96997,89.9560551 205.840577,90 205.669678,90 L204.783447,90 C204.588134,90 204.444092,89.9414068 204.351318,89.8242188 C204.258544,89.7070307 204.212158,89.5214856 204.212158,89.2675781 L204.212158,85.9204102 Z" id="Path" fill="#F5A623" fill-rule="nonzero"></path>
        <path d="M208.606689,91.875 L210.364502,91.875 C210.55005,91.875 210.689209,91.9189449 210.781982,92.0068359 C210.874756,92.094727 210.921143,92.2265616 210.921143,92.4023438 C210.921143,92.5927744 210.875977,92.7270504 210.785645,92.8051758 C210.695312,92.8833012 210.535402,92.9223633 210.305908,92.9223633 L207.075928,92.9223633 C206.880614,92.9223633 206.732911,92.8784184 206.632812,92.7905273 C206.532714,92.7026363 206.482666,92.573243 206.482666,92.4023438 C206.482666,92.2070303 206.544921,92.0703129 206.669434,91.9921875 C206.793946,91.9140621 207.024657,91.875 207.361572,91.875 L207.500732,91.875 L207.500732,84.2724609 L207.361572,84.2724609 C207.024657,84.2724609 206.793946,84.2333988 206.669434,84.1552734 C206.544921,84.077148 206.482666,83.9404307 206.482666,83.7451172 C206.482666,83.5742179 206.532714,83.4460453 206.632812,83.3605957 C206.732911,83.2751461 206.880614,83.2324219 207.075928,83.2324219 L208.189209,83.2324219 C208.335694,83.2324219 208.441894,83.2568357 208.507812,83.3056641 C208.573731,83.3544924 208.606689,83.4301753 208.606689,83.5327148 L208.606689,84.2431641 C208.938722,83.9013655 209.30615,83.6450204 209.708984,83.4741211 C210.111818,83.3032218 210.545164,83.2177734 211.009033,83.2177734 C211.990483,83.2177734 212.810788,83.5498014 213.469971,84.2138672 C214.129154,84.877933 214.45874,85.7104442 214.45874,86.7114258 C214.45874,87.6733447 214.146243,88.4643524 213.52124,89.0844727 C212.896237,89.7045929 212.097905,90.0146484 211.126221,90.0146484 C210.60864,90.0146484 210.132571,89.9230966 209.697998,89.7399902 C209.263426,89.5568839 208.89966,89.2944353 208.606689,88.9526367 L208.606689,91.875 Z M210.877197,88.9379883 C211.555912,88.9379883 212.112547,88.7243674 212.547119,88.2971191 C212.981692,87.8698709 213.198975,87.3168979 213.198975,86.6381836 C213.198975,85.9741178 212.980471,85.4260276 212.543457,84.9938965 C212.106443,84.5617654 211.551029,84.3457031 210.877197,84.3457031 C210.203366,84.3457031 209.651613,84.5605447 209.221924,84.9902344 C208.792234,85.419924 208.577393,85.9692349 208.577393,86.6381836 C208.577393,87.3120151 208.791013,87.8637674 209.218262,88.293457 C209.64551,88.7231467 210.198483,88.9379883 210.877197,88.9379883 Z" id="Combined-Shape" fill="#F5A623" fill-rule="nonzero"></path>
        <path d="M219.00708,81.4672852 L217.761963,81.4672852 C217.288328,81.4672852 216.9917,81.4294437 216.87207,81.3537598 C216.752441,81.2780758 216.692627,81.1401377 216.692627,80.9399414 C216.692627,80.7641593 216.742675,80.6323247 216.842773,80.5444336 C216.942872,80.4565425 217.088134,80.4125977 217.278564,80.4125977 L219.695557,80.4125977 C219.827393,80.4125977 219.929931,80.4394529 220.003174,80.4931641 C220.076416,80.5468753 220.113037,80.6201167 220.113037,80.7128906 L220.113037,88.9672852 L222.412842,88.9672852 C222.59839,88.9672852 222.733886,89.007568 222.819336,89.0881348 C222.904786,89.1687016 222.94751,89.2968741 222.94751,89.4726562 C222.94751,89.6728526 222.906006,89.8107906 222.822998,89.8864746 C222.73999,89.9621586 222.583741,90 222.354248,90 L216.948975,90 C216.758544,90 216.613282,89.9560551 216.513184,89.8681641 C216.413085,89.780273 216.363037,89.6484384 216.363037,89.4726562 C216.363037,89.301757 216.414306,89.1748051 216.516846,89.0917969 C216.619385,89.0087886 216.773192,88.9672852 216.978271,88.9672852 L219.00708,88.9672852 L219.00708,81.4672852 Z" id="Path" fill="#F5A623" fill-rule="nonzero"></path>
        <path d="M226.023682,86.9384766 C226.062744,87.6416051 226.300779,88.1848125 226.737793,88.5681152 C227.174807,88.9514179 227.771725,89.1430664 228.528564,89.1430664 C229.099856,89.1430664 229.722409,88.99048 230.39624,88.6853027 C231.070072,88.3801254 231.477782,88.2275391 231.619385,88.2275391 C231.76587,88.2275391 231.887939,88.2739253 231.985596,88.3666992 C232.083252,88.4594731 232.13208,88.5742181 232.13208,88.7109375 C232.13208,88.8525398 232.080811,88.981933 231.978271,89.0991211 C231.875732,89.2163092 231.712159,89.3310541 231.487549,89.4433594 C230.999265,89.6826184 230.49512,89.865722 229.975098,89.9926758 C229.455076,90.1196295 228.938723,90.1831055 228.426025,90.1831055 C227.312739,90.1831055 226.421634,89.8620638 225.752686,89.2199707 C225.083737,88.5778776 224.749268,87.7270561 224.749268,86.6674805 C224.749268,85.5883735 225.103268,84.7143588 225.811279,84.0454102 C226.519291,83.3764615 227.442133,83.0419922 228.579834,83.0419922 C229.610113,83.0419922 230.464596,83.3544891 231.143311,83.9794922 C231.822025,84.6044953 232.161377,85.3613237 232.161377,86.25 C232.161377,86.5234389 232.104004,86.7065425 231.989258,86.7993164 C231.874511,86.8920903 231.563235,86.9384766 231.05542,86.9384766 L226.023682,86.9384766 Z M226.060303,85.9790039 L230.828369,85.9790039 C230.755127,85.3979463 230.512209,84.9304217 230.099609,84.576416 C229.68701,84.2224103 229.180423,84.0454102 228.579834,84.0454102 C227.930417,84.0454102 227.383547,84.2163069 226.939209,84.5581055 C226.494871,84.8999041 226.201905,85.3735321 226.060303,85.9790039 Z" id="Combined-Shape" fill="#F5A623" fill-rule="nonzero"></path>
        <path d="M237.024658,81.6430664 C237.058838,81.506347 237.101562,81.4172365 237.152832,81.3757324 C237.204102,81.3342283 237.290771,81.3134766 237.412842,81.3134766 L238.716553,81.3134766 C238.775147,81.3134766 238.822754,81.3269042 238.859375,81.3537598 C238.895996,81.3806154 238.914307,81.413574 238.914307,81.4526367 C238.914307,81.4819337 238.910645,81.5100096 238.90332,81.5368652 C238.895996,81.5637208 238.88501,81.5893553 238.870361,81.6137695 L237.215088,85.0341797 C237.190674,85.0976566 237.156494,85.1464842 237.112549,85.1806641 C237.068603,85.2148439 237.019776,85.2319336 236.966064,85.2319336 C236.931885,85.2319336 236.907471,85.2307129 236.892822,85.2282715 C236.878174,85.2258301 236.861084,85.222168 236.841553,85.2172852 L236.424072,85.0488281 C236.355713,85.0292968 236.303223,85.0012209 236.266602,84.9645996 C236.22998,84.9279783 236.21167,84.8852542 236.21167,84.8364258 C236.21167,84.8071288 236.221435,84.7631839 236.240967,84.7045898 L236.240967,84.675293 L237.024658,81.6430664 Z" id="Path" fill="#F5A623" fill-rule="nonzero"></path>
    </g>
</svg>