<?xml version="1.0" encoding="UTF-8"?>
<svg width="421px" height="153px" viewBox="0 0 421 153" version="1.1" xmlns="http://www.w3.org/2000/svg" xmlns:xlink="http://www.w3.org/1999/xlink">
    <!-- Generator: Sketch 51.2 (57519) - http://www.bohemiancoding.com/sketch -->
    <title>key value </title>
    <desc>Created with Sketch.</desc>
    <defs></defs>
    <g id="key-value-" stroke="none" stroke-width="1" fill="none" fill-rule="evenodd">
        <rect fill="#FFFFFF" x="0" y="0" width="421" height="153"></rect>
        <g id="Group" transform="translate(169.000000, 45.000000)" stroke="#4C7EF3" stroke-width="9">
            <path d="M20.610687,35.2671756 L20.610687,-5.95419847" id="Line-4-Copy-3" stroke-linecap="square" fill-rule="nonzero" transform="translate(20.610687, 14.656489) rotate(-90.000000) translate(-20.610687, -14.656489) "></path>
            <polyline id="Triangle-Copy-11" transform="translate(38.473282, 14.885496) rotate(-90.000000) translate(-38.473282, -14.885496) " points="53.129771 6.87022901 38.4732824 22.9007634 23.8167939 6.87022901"></polyline>
        </g>
        <path d="M124.870787,57.186833 L124.870787,62.4258737 L123.064019,64.7568275 L123.719101,65.7759926 L120.955056,67.7764104 L124.870787,70.263972 L124.870787,74.3296112 L123.02809,76.6567282 L124.870787,79.1474183 L122.797753,80.8124598 L122.797753,82.4340744 L120.267194,84.780856 L124.870787,87.2483061 L124.870787,89.4078278 L123.241782,90.5711628 L124.870787,91.8439935 L124.870787,94.9188091 L116.503795,104 L111.280899,99.2664554 L111.280899,57.3775379 C109.611157,56.037662 108.538376,53.9844412 108.524862,51.6801825 C101.701213,48.3739176 97,41.4150099 97,33.3652905 C97,22.1178511 106.178163,13 117.5,13 C128.821837,13 138,22.1178511 138,33.3652905 C138,41.0517839 133.713479,47.7436856 127.385644,51.2105428 C127.521692,53.5145446 126.558699,55.7152209 124.870787,57.186833 Z M117.5,33.1364671 C120.425868,33.1364671 122.797753,30.7801684 122.797753,27.8735268 C122.797753,24.9668852 120.425868,22.6105865 117.5,22.6105865 C114.574132,22.6105865 112.202247,24.9668852 112.202247,27.8735268 C112.202247,30.7801684 114.574132,33.1364671 117.5,33.1364671 Z" id="Combined-Shape" fill="#4C7EF3" fill-rule="nonzero"></path>
        <path d="M102.874023,137 L102.874023,124.124023 L105.264648,124.124023 L105.264648,129.924805 C105.680666,129.374021 106.531732,128.345711 107.817871,126.839844 C109.10401,125.333977 109.870116,124.428712 110.116211,124.124023 L112.9375,124.124023 L108.068359,129.916016 L113.245117,137 L110.450195,137 L106.249023,131.225586 L105.264648,132.051758 L105.264648,137 L102.874023,137 Z M114.730469,137 L114.730469,124.124023 L122.535156,124.124023 L122.438477,126.013672 L117.112305,126.013672 L117.112305,129.335938 L122.174805,129.335938 L122.174805,131.225586 L117.112305,131.225586 L117.112305,135.101562 L122.631836,135.101562 L122.552734,137 L114.730469,137 Z M127.791016,137 L127.791016,131.893555 L123.334961,124.124023 L125.918945,124.124023 L128.986328,129.696289 L132.071289,124.124023 L134.620117,124.124023 L130.181641,131.849609 L130.181641,137 L127.791016,137 Z" id="KEY" fill="#4C7EF3"></path>
        <path d="M266.634277,137 L261.949707,124.124023 L264.401855,124.124023 L267.126465,132.078125 C267.231934,132.353517 267.475096,133.159173 267.855957,134.495117 C267.879395,134.401367 267.987792,134.016117 268.181152,133.339355 C268.374513,132.662594 268.500488,132.248048 268.559082,132.095703 C268.629395,131.896483 269.074703,130.573743 269.89502,128.127441 C270.715336,125.68114 271.163574,124.346681 271.239746,124.124023 L273.665527,124.124023 L269.04248,137 L266.634277,137 Z M273.586426,137 L278.32373,124.115234 L280.916504,124.115234 L285.583496,137 L283.140137,137 L281.865723,133.361328 L277.356934,133.361328 L276.07373,137 L273.586426,137 Z M277.95459,131.585938 L281.259277,131.585938 C280.204585,128.205061 279.662598,126.458985 279.633301,126.347656 L277.95459,131.585938 Z M286.945801,137 L286.945801,124.124023 L289.327637,124.124023 L289.327637,135.101562 L294.715332,135.101562 L294.64502,137 L286.945801,137 Z M301.38623,137.18457 C299.698722,137.18457 298.418461,136.764164 297.54541,135.92334 C296.672359,135.082515 296.23584,133.897469 296.23584,132.368164 L296.23584,124.124023 L298.626465,124.124023 L298.626465,132.166016 C298.626465,133.238287 298.844724,134.020505 299.28125,134.512695 C299.717776,135.004885 300.434077,135.250977 301.430176,135.250977 C302.408696,135.250977 303.117674,135.00342 303.557129,134.508301 C303.996584,134.013181 304.216309,133.229498 304.216309,132.157227 L304.216309,124.124023 L306.598145,124.124023 L306.598145,132.385742 C306.598145,133.903328 306.152836,135.082515 305.262207,135.92334 C304.371578,136.764164 303.079598,137.18457 301.38623,137.18457 Z M309.26123,137 L309.26123,124.124023 L317.065918,124.124023 L316.969238,126.013672 L311.643066,126.013672 L311.643066,129.335938 L316.705566,129.335938 L316.705566,131.225586 L311.643066,131.225586 L311.643066,135.101562 L317.162598,135.101562 L317.083496,137 L309.26123,137 Z" id="VALUE" fill="#4C7EF3"></path>
        <g id="Group-2" transform="translate(243.000000, 15.000000)" fill-rule="nonzero">
            <polygon id="Path-2" fill="#4C7EF3" points="46.2686502 72.1391314 46.2686502 90.3850251 92.0719029 72.2766923 92.7612134 55.5223803"></polygon>
            <polygon id="Path-3" fill="#4C7EF3" points="12.8524028 50.3814192 46.2013759 72.0131176 46.2013759 89.5877744 13.7801857 66.6703336"></polygon>
            <polygon id="Path-11" fill="#7098F5" points="27.247094 56.6640614 56.0960863 49.3532269 75.8055808 58.9496315 47.4453893 69.1032532"></polygon>
            <polygon id="Path-9" fill="#4C7EF3" points="28.3195205 57.7544813 55.9300351 50.1394716 57.4326689 40.613593 17.993364 51.252765"></polygon>
            <polygon id="Path-10" fill="#4C7EF3" points="55.5223803 50.041564 56.3201706 40.0994969 86.8978065 54.939681 74.9107088 59.3354272"></polygon>
            <path d="M12.8524028,50.8233528 L58.271754,39.0713046 L93.0875437,55.7247558 L46.5457916,72.5678796 L12.8524028,50.8233528 Z M18.8259968,51.2822379 L47.4896865,69.0385431 L87.063602,55.0935339 L58.3566842,41.0343133 L18.8259968,51.2822379 Z" id="Combined-Shape" fill="#7098F5"></path>
            <polygon id="Path-14" fill="#7098F5" points="2.84294726 4.62686502 0 5.76550759 9.76118781 49.8231429 13.2183951 50.8513351"></polygon>
            <polygon id="Path-15" fill="#7098F5" points="7.19734559 7.6693883 45.9818317 3.08457668 51.8037185 35.4289303 14.998232 43.8256897"></polygon>
            <polygon id="Path-16" fill="#4C7EF3" points="54.6789414 36.7372882 50.7047374 35.4726319 14.9087873 43.5972582 15.5539177 46.586948"></polygon>
            <polygon id="Path-17" fill="#4C7EF3" points="44.7263619 3.80300592 48.0935249 3.08457668 55.1473513 36.8828818 50.6188972 35.4992403"></polygon>
            <path d="M13.0687851,51.0496437 L2.57048057,4.82567563 L50.0882237,0 L57.6510595,39.2555559 L13.0687851,51.0496437 Z M7.28068539,8.28779165 L15.5162642,45.9729446 L54.5027229,36.5510288 L48.0202922,3.31150192 L7.28068539,8.28779165 Z" id="Combined-Shape" fill="#4C7EF3"></path>
            <path d="M70.4311676,71.1795191 C70.4311676,70.1249911 71.278808,68.9334302 72.3244254,68.5180934 C73.3700428,68.1027566 74.2176832,68.6209235 74.2176832,69.6754515 C74.2176832,70.4274065 73.7866814,71.2490389 73.1602314,71.8092221 C73.1656211,71.8455646 73.1684078,71.8837755 73.1684078,71.9237443 L73.1684078,74.0596324 C73.1684078,74.5243512 72.7916787,75.0507234 72.3269599,75.2353175 C71.862241,75.4199117 71.485512,75.1928257 71.485512,74.7281069 L71.485512,72.5922188 C71.485512,72.5530629 71.4881865,72.5134694 71.4933627,72.4736794 C70.864346,72.4131197 70.4311676,71.9333705 70.4311676,71.1795191 Z" id="Combined-Shape" fill="#DBE5FD"></path>
        </g>
    </g>
</svg>