<?xml version="1.0" encoding="UTF-8"?>
<svg width="421px" height="166px" viewBox="0 0 421 166" version="1.1" xmlns="http://www.w3.org/2000/svg" xmlns:xlink="http://www.w3.org/1999/xlink">
    <!-- Generator: Sketch 51.2 (57519) - http://www.bohemiancoding.com/sketch -->
    <title>object dot notation </title>
    <desc>Created with Sketch.</desc>
    <defs></defs>
    <g id="object-dot-notation-" stroke="none" stroke-width="1" fill="none" fill-rule="evenodd">
        <rect fill="#FFFFFF" x="0" y="0" width="421" height="166"></rect>
        <text id="spaceship.color;" font-family="Courier" font-size="15" font-weight="normal">
            <tspan x="127.988281" y="88" fill="#BD10E0">spaceship</tspan>
            <tspan x="209.001465" y="88" fill="#9B9B9B">.</tspan>
            <tspan x="218.00293" y="88" fill="#F5A623">color</tspan>
            <tspan x="263.010254" y="88" fill="#9B9B9B">;</tspan>
            <tspan x="272.011719" y="88" fill="#4A90E2"></tspan>
        </text>
        <path d="M195.430664,42 L195.430664,34.1098633 L198.051758,34.1098633 C198.671227,34.1098633 199.20117,34.1895337 199.641602,34.348877 C200.082033,34.5082202 200.430256,34.7669253 200.686279,35.125 C200.942303,35.4830747 201.070312,35.9324517 201.070312,36.4731445 C201.070312,36.849123 201.021973,37.1830226 200.925293,37.4748535 C200.828613,37.7666844 200.669272,38.0316557 200.447266,38.2697754 C200.225259,38.5078951 199.912844,38.6914056 199.51001,38.8203125 C199.107176,38.9492194 198.621097,39.0136719 198.051758,39.0136719 C197.564776,39.0136719 197.16911,38.9993491 196.864746,38.9707031 L196.864746,42 L195.430664,42 Z M197.895996,37.9609375 C198.193198,37.9609375 198.451903,37.932292 198.672119,37.875 C198.892335,37.817708 199.064208,37.7443038 199.187744,37.6547852 C199.31128,37.5652665 199.409749,37.454265 199.483154,37.3217773 C199.55656,37.1892897 199.604899,37.0612799 199.628174,36.9377441 C199.651449,36.8142084 199.663086,36.6754565 199.663086,36.5214844 C199.663086,36.088214 199.523439,35.7587902 199.244141,35.5332031 C198.964842,35.3076161 198.570966,35.1948242 198.0625,35.1948242 L196.864746,35.1948242 L196.864746,37.9501953 C196.907715,37.9573568 197.251462,37.9609375 197.895996,37.9609375 Z M202.117676,42 L202.117676,34.1098633 L205.03418,34.1098633 C205.431643,34.1098633 205.776284,34.1277667 206.068115,34.1635742 C206.359946,34.1993817 206.63745,34.2647293 206.900635,34.3596191 C207.16382,34.4545089 207.376871,34.5825187 207.539795,34.7436523 C207.702719,34.904786 207.831624,35.1151517 207.926514,35.3747559 C208.021403,35.63436 208.068848,35.9414045 208.068848,36.2958984 C208.068848,37.3414766 207.594406,38.0289697 206.645508,38.3583984 C206.838868,38.576824 207.078775,38.9814424 207.365234,39.5722656 L208.536133,42 L206.946289,42 L206.027832,39.9428711 C205.6805,39.2052372 205.465658,38.7683926 205.383301,38.6323242 C205.322428,38.6287435 205.120119,38.6269531 204.776367,38.6269531 L203.557129,38.6162109 L203.557129,42 L202.117676,42 Z M205.163086,37.5742188 C205.721682,37.5742188 206.12272,37.4748545 206.366211,37.276123 C206.609702,37.0773916 206.731445,36.7578147 206.731445,36.3173828 C206.731445,35.9306621 206.607911,35.645997 206.36084,35.4633789 C206.113768,35.2807608 205.736005,35.1894531 205.227539,35.1894531 L203.557129,35.1894531 L203.557129,37.5688477 C203.61084,37.5688477 203.877602,37.5697428 204.357422,37.5715332 C204.837242,37.5733236 205.105794,37.5742188 205.163086,37.5742188 Z M213.144531,40.9257812 C213.90723,40.9257812 214.482827,40.6778182 214.871338,40.1818848 C215.259849,39.6859513 215.454102,38.9850306 215.454102,38.0791016 C215.454102,37.1624303 215.259849,36.4516627 214.871338,35.9467773 C214.482827,35.441892 213.909021,35.1894531 213.149902,35.1894531 C212.387203,35.1894531 211.809816,35.4427872 211.417725,35.9494629 C211.025633,36.4561386 210.82959,37.1660111 210.82959,38.0791016 C210.82959,38.9814498 211.024738,39.6814754 211.415039,40.1791992 C211.80534,40.6769231 212.381832,40.9257812 213.144531,40.9257812 Z M213.13916,42.112793 C211.953933,42.112793 211.018477,41.7538285 210.332764,41.0358887 C209.647051,40.3179489 209.304199,39.326992 209.304199,38.0629883 C209.304199,36.7918231 209.647946,35.799971 210.335449,35.0874023 C211.022953,34.3748337 211.959304,34.0185547 213.144531,34.0185547 C214.329759,34.0185547 215.264319,34.3757289 215.948242,35.0900879 C216.632165,35.8044469 216.974121,36.7971942 216.974121,38.0683594 C216.974121,39.3252016 216.630375,40.313473 215.942871,41.0332031 C215.255368,41.7529333 214.320807,42.112793 213.13916,42.112793 Z M218.316895,42 L218.316895,34.1098633 L220.937988,34.1098633 C221.557458,34.1098633 222.0874,34.1895337 222.527832,34.348877 C222.968264,34.5082202 223.316486,34.7669253 223.57251,35.125 C223.828533,35.4830747 223.956543,35.9324517 223.956543,36.4731445 C223.956543,36.849123 223.908204,37.1830226 223.811523,37.4748535 C223.714843,37.7666844 223.555502,38.0316557 223.333496,38.2697754 C223.11149,38.5078951 222.799074,38.6914056 222.39624,38.8203125 C221.993406,38.9492194 221.507327,39.0136719 220.937988,39.0136719 C220.451007,39.0136719 220.05534,38.9993491 219.750977,38.9707031 L219.750977,42 L218.316895,42 Z M220.782227,37.9609375 C221.079429,37.9609375 221.338134,37.932292 221.55835,37.875 C221.778566,37.817708 221.950439,37.7443038 222.073975,37.6547852 C222.19751,37.5652665 222.295979,37.454265 222.369385,37.3217773 C222.44279,37.1892897 222.491129,37.0612799 222.514404,36.9377441 C222.537679,36.8142084 222.549316,36.6754565 222.549316,36.5214844 C222.549316,36.088214 222.409669,35.7587902 222.130371,35.5332031 C221.851073,35.3076161 221.457197,35.1948242 220.94873,35.1948242 L219.750977,35.1948242 L219.750977,37.9501953 C219.793946,37.9573568 220.137692,37.9609375 220.782227,37.9609375 Z M225.041504,42 L225.041504,34.1313477 L229.811035,34.1313477 L229.751953,35.2861328 L226.49707,35.2861328 L226.49707,37.3164062 L229.59082,37.3164062 L229.59082,38.4711914 L226.49707,38.4711914 L226.49707,40.8398438 L229.870117,40.8398438 L229.821777,42 L225.041504,42 Z M231.191406,42 L231.191406,34.1098633 L234.10791,34.1098633 C234.505373,34.1098633 234.850015,34.1277667 235.141846,34.1635742 C235.433677,34.1993817 235.71118,34.2647293 235.974365,34.3596191 C236.23755,34.4545089 236.450601,34.5825187 236.613525,34.7436523 C236.776449,34.904786 236.905354,35.1151517 237.000244,35.3747559 C237.095134,35.63436 237.142578,35.9414045 237.142578,36.2958984 C237.142578,37.3414766 236.668136,38.0289697 235.719238,38.3583984 C235.912599,38.576824 236.152505,38.9814424 236.438965,39.5722656 L237.609863,42 L236.02002,42 L235.101562,39.9428711 C234.75423,39.2052372 234.539388,38.7683926 234.457031,38.6323242 C234.396159,38.6287435 234.193849,38.6269531 233.850098,38.6269531 L232.630859,38.6162109 L232.630859,42 L231.191406,42 Z M234.236816,37.5742188 C234.795413,37.5742188 235.196451,37.4748545 235.439941,37.276123 C235.683432,37.0773916 235.805176,36.7578147 235.805176,36.3173828 C235.805176,35.9306621 235.681642,35.645997 235.43457,35.4633789 C235.187499,35.2807608 234.809736,35.1894531 234.30127,35.1894531 L232.630859,35.1894531 L232.630859,37.5688477 C232.684571,37.5688477 232.951332,37.5697428 233.431152,37.5715332 C233.910972,37.5733236 234.179524,37.5742188 234.236816,37.5742188 Z M240.236328,42 L240.236328,35.296875 L237.942871,35.296875 L237.942871,34.1313477 L243.97998,34.1313477 L243.97998,35.296875 L241.697266,35.296875 L241.697266,42 L240.236328,42 Z M246.697754,42 L246.697754,38.8793945 L243.974609,34.1313477 L245.553711,34.1313477 L247.428223,37.5366211 L249.313477,34.1313477 L250.871094,34.1313477 L248.158691,38.8525391 L248.158691,42 L246.697754,42 Z M254.555664,42 L254.555664,34.1313477 L256.102539,34.1313477 C256.381837,34.5681988 256.949377,35.4490494 257.805176,36.7739258 C258.660974,38.0988022 259.181965,38.9044582 259.368164,39.190918 C259.421875,39.2732752 259.514078,39.412027 259.644775,39.6071777 C259.775473,39.8023284 259.867676,39.9410803 259.921387,40.0234375 C259.896321,38.7952413 259.883789,38.1578778 259.883789,38.1113281 L259.883789,34.1313477 L261.210449,34.1313477 L261.210449,42 L259.64209,42 L256.091797,36.4677734 L255.833984,36.043457 C255.86263,36.9887743 255.876953,37.6529929 255.876953,38.0361328 L255.876953,42 L254.555664,42 Z M262.037598,42 L264.932617,34.1259766 L266.51709,34.1259766 L269.369141,42 L267.875977,42 L267.097168,39.7763672 L264.341797,39.7763672 L263.557617,42 L262.037598,42 Z M264.707031,38.6914062 L266.726562,38.6914062 C266.082028,36.6253152 265.750814,35.5582686 265.73291,35.4902344 L264.707031,38.6914062 Z M270.15332,42 L270.15332,34.1313477 L271.87207,34.1313477 L274.251465,39.8139648 L276.646973,34.1313477 L278.344238,34.1313477 L278.344238,42 L277.001465,42 L277.001465,38.1113281 L277.044434,35.8823242 L276.845703,36.4731445 L274.831543,41.4628906 L273.585449,41.4628906 L271.614258,36.4462891 L271.415527,35.8554688 L271.463867,38.1328125 L271.463867,42 L270.15332,42 Z M280.041504,42 L280.041504,34.1313477 L284.811035,34.1313477 L284.751953,35.2861328 L281.49707,35.2861328 L281.49707,37.3164062 L284.59082,37.3164062 L284.59082,38.4711914 L281.49707,38.4711914 L281.49707,40.8398438 L284.870117,40.8398438 L284.821777,42 L280.041504,42 Z" id="PROPERTY-NAME" fill="#4A4A4A"></path>
        <path d="M150.544189,40.9257812 C151.306889,40.9257812 151.882485,40.6778182 152.270996,40.1818848 C152.659507,39.6859513 152.85376,38.9850306 152.85376,38.0791016 C152.85376,37.1624303 152.659507,36.4516627 152.270996,35.9467773 C151.882485,35.441892 151.308679,35.1894531 150.549561,35.1894531 C149.786861,35.1894531 149.209475,35.4427872 148.817383,35.9494629 C148.425291,36.4561386 148.229248,37.1660111 148.229248,38.0791016 C148.229248,38.9814498 148.424396,39.6814754 148.814697,40.1791992 C149.204999,40.6769231 149.78149,40.9257812 150.544189,40.9257812 Z M150.538818,42.112793 C149.353591,42.112793 148.418135,41.7538285 147.732422,41.0358887 C147.046709,40.3179489 146.703857,39.326992 146.703857,38.0629883 C146.703857,36.7918231 147.047604,35.799971 147.735107,35.0874023 C148.422611,34.3748337 149.358962,34.0185547 150.544189,34.0185547 C151.729417,34.0185547 152.663978,34.3757289 153.3479,35.0900879 C154.031823,35.8044469 154.373779,36.7971942 154.373779,38.0683594 C154.373779,39.3252016 154.030033,40.313473 153.342529,41.0332031 C152.655026,41.7529333 151.720465,42.112793 150.538818,42.112793 Z M155.75415,42 L155.75415,34.1313477 L158.20874,34.1313477 C159.250738,34.1313477 160.027748,34.2835271 160.539795,34.5878906 C161.051842,34.8922541 161.307861,35.3989222 161.307861,36.1079102 C161.307861,36.2224941 161.3007,36.3352859 161.286377,36.4462891 C161.272054,36.5572922 161.239828,36.6835117 161.189697,36.8249512 C161.139567,36.9663907 161.073324,37.0944005 160.990967,37.2089844 C160.90861,37.3235683 160.794027,37.4354649 160.647217,37.5446777 C160.500406,37.6538905 160.328533,37.738932 160.131592,37.7998047 C160.618573,37.9179693 160.990966,38.1444482 161.248779,38.479248 C161.506593,38.8140479 161.635498,39.2267228 161.635498,39.7172852 C161.635498,40.4584998 161.373212,41.0242494 160.848633,41.4145508 C160.324053,41.8048522 159.598068,42 158.670654,42 L155.75415,42 Z M157.209717,40.9472656 L158.471924,40.9472656 C159.589117,40.9472656 160.147705,40.510421 160.147705,39.6367188 C160.147705,39.1962869 160.008058,38.8793955 159.72876,38.6860352 C159.449461,38.4926748 159.017988,38.3959961 158.434326,38.3959961 L157.209717,38.3959961 L157.209717,40.9472656 Z M157.209717,37.3808594 L158.455811,37.3808594 C159.419032,37.3808594 159.900635,37.0138383 159.900635,36.2797852 C159.900635,35.8679992 159.761883,35.5851245 159.484375,35.4311523 C159.206867,35.2771802 158.765547,35.2001953 158.1604,35.2001953 L157.209717,35.2001953 L157.209717,37.3808594 Z M161.673096,43.7241211 L161.614014,42.5800781 C161.78589,42.6087241 161.973876,42.6230469 162.177979,42.6230469 C162.575441,42.6230469 162.843993,42.5209971 162.983643,42.3168945 C163.123292,42.1127919 163.193115,41.7762068 163.193115,41.3071289 L163.193115,34.1098633 L164.654053,34.1098633 L164.654053,41.2104492 C164.654053,41.6616233 164.61377,42.042072 164.533203,42.3518066 C164.452636,42.6615413 164.31657,42.9247222 164.125,43.1413574 C163.93343,43.3579926 163.679201,43.5164383 163.362305,43.6166992 C163.045409,43.7169601 162.652427,43.7670898 162.18335,43.7670898 C161.986409,43.7670898 161.816326,43.7527671 161.673096,43.7241211 Z M166.313721,42 L166.313721,34.1313477 L171.083252,34.1313477 L171.02417,35.2861328 L167.769287,35.2861328 L167.769287,37.3164062 L170.863037,37.3164062 L170.863037,38.4711914 L167.769287,38.4711914 L167.769287,40.8398438 L171.142334,40.8398438 L171.093994,42 L166.313721,42 Z M175.93335,42.112793 C174.78393,42.112793 173.872643,41.7511429 173.199463,41.027832 C172.526282,40.3045211 172.189697,39.3055077 172.189697,38.0307617 C172.189697,36.8204692 172.5415,35.8492061 173.245117,35.1169434 C173.948734,34.3846806 174.869867,34.0185547 176.008545,34.0185547 C176.928797,34.0185547 177.707598,34.2316059 178.344971,34.6577148 L177.888428,35.7587891 C177.27612,35.3828106 176.660241,35.1948242 176.040771,35.1948242 C175.317461,35.1948242 174.745445,35.4553197 174.324707,35.9763184 C173.903969,36.4973171 173.693604,37.1964474 173.693604,38.0737305 C173.693604,38.9832402 173.896808,39.6868465 174.303223,40.1845703 C174.709637,40.6822942 175.288815,40.9311523 176.040771,40.9311523 C176.699629,40.9311523 177.353105,40.7664404 178.001221,40.4370117 L178.19458,41.5756836 C177.593015,41.9337583 176.839279,42.112793 175.93335,42.112793 Z M181.009033,42 L181.009033,35.296875 L178.715576,35.296875 L178.715576,34.1313477 L184.752686,34.1313477 L184.752686,35.296875 L182.469971,35.296875 L182.469971,42 L181.009033,42 Z" id="OBJECT" fill="#4A4A4A"></path>
        <g id="Group" transform="translate(239.500000, 59.500000) rotate(-360.000000) translate(-239.500000, -59.500000) translate(217.000000, 48.000000)" stroke="#4A4A4A" stroke-linecap="square">
            <path d="M44,12 L44,22.5" id="Line-4-Copy" transform="translate(44.000000, 17.250000) scale(-1, -1) translate(-44.000000, -17.250000) "></path>
            <path d="M1,12 L1,22.5" id="Line-4-Copy-2" transform="translate(1.000000, 17.250000) scale(-1, -1) translate(-1.000000, -17.250000) "></path>
            <path d="M1,11 L44,11" id="Line-5-Copy" transform="translate(22.500000, 11.000000) scale(-1, -1) translate(-22.500000, -11.000000) "></path>
            <path d="M23,0.5 L23,11" id="Line-6-Copy" transform="translate(23.000000, 5.750000) scale(-1, -1) translate(-23.000000, -5.750000) "></path>
        </g>
        <g id="Group-Copy" transform="translate(167.500000, 59.500000) rotate(-360.000000) translate(-167.500000, -59.500000) translate(126.000000, 48.000000)" stroke="#4A4A4A" stroke-linecap="square">
            <path d="M82,12 L82,22.5" id="Line-4-Copy" transform="translate(82.000000, 17.250000) scale(-1, -1) translate(-82.000000, -17.250000) "></path>
            <path d="M1,12 L1,22.5" id="Line-4-Copy-2" transform="translate(1.000000, 17.250000) scale(-1, -1) translate(-1.000000, -17.250000) "></path>
            <path d="M0.5,11 L82.5,11" id="Line-5-Copy" transform="translate(41.500000, 11.000000) scale(-1, -1) translate(-41.500000, -11.000000) "></path>
            <path d="M41,0.5 L41,11" id="Line-6-Copy" transform="translate(41.000000, 5.750000) scale(-1, -1) translate(-41.000000, -5.750000) "></path>
        </g>
        <g id="Group-2" transform="translate(214.000000, 107.000000) rotate(-180.000000) translate(-214.000000, -107.000000) translate(206.000000, 95.000000)" stroke="#4A4A4A" stroke-linecap="square">
            <path d="M15,13 L15,24" id="Line-4-Copy" transform="translate(15.000000, 18.500000) scale(-1, -1) translate(-15.000000, -18.500000) "></path>
            <path d="M1,13 C1,13 1,16.6666667 1,24" id="Line-4-Copy-2" transform="translate(1.000000, 18.500000) scale(-1, -1) translate(-1.000000, -18.500000) "></path>
            <path d="M1,12 L15,12" id="Line-5-Copy" transform="translate(8.000000, 12.000000) scale(-1, -1) translate(-8.000000, -12.000000) "></path>
            <path d="M8,0 L8,12" id="Line-6-Copy" transform="translate(8.000000, 6.000000) scale(-1, -1) translate(-8.000000, -6.000000) "></path>
        </g>
        <path d="M173.759277,131.834473 L174.80127,131.834473 C175.700037,131.834473 176.383949,131.599042 176.853027,131.128174 C177.322105,130.657306 177.556641,129.970708 177.556641,129.068359 C177.556641,128.101558 177.314944,127.398847 176.831543,126.960205 C176.348142,126.521564 175.619471,126.302246 174.645508,126.302246 L173.759277,126.302246 L173.759277,131.834473 Z M172.303711,133 L172.303711,125.131348 L174.581055,125.131348 C175.268558,125.131348 175.884437,125.210123 176.428711,125.367676 C176.972984,125.525229 177.44116,125.76245 177.833252,126.079346 C178.225344,126.396242 178.526122,126.804441 178.735596,127.303955 C178.945069,127.803469 179.049805,128.380856 179.049805,129.036133 C179.049805,130.307298 178.66667,131.285722 177.900391,131.971436 C177.134111,132.657149 176.072435,133 174.715332,133 L172.303711,133 Z M183.953613,131.925781 C184.716312,131.925781 185.291909,131.677818 185.68042,131.181885 C186.068931,130.685951 186.263184,129.985031 186.263184,129.079102 C186.263184,128.16243 186.068931,127.451663 185.68042,126.946777 C185.291909,126.441892 184.718103,126.189453 183.958984,126.189453 C183.196285,126.189453 182.618898,126.442787 182.226807,126.949463 C181.834715,127.456139 181.638672,128.166011 181.638672,129.079102 C181.638672,129.98145 181.83382,130.681475 182.224121,131.179199 C182.614423,131.676923 183.190914,131.925781 183.953613,131.925781 Z M183.948242,133.112793 C182.763015,133.112793 181.827559,132.753828 181.141846,132.035889 C180.456133,131.317949 180.113281,130.326992 180.113281,129.062988 C180.113281,127.791823 180.457028,126.799971 181.144531,126.087402 C181.832035,125.374834 182.768386,125.018555 183.953613,125.018555 C185.138841,125.018555 186.073402,125.375729 186.757324,126.090088 C187.441247,126.804447 187.783203,127.797194 187.783203,129.068359 C187.783203,130.325202 187.439457,131.313473 186.751953,132.033203 C186.06445,132.752933 185.129889,133.112793 183.948242,133.112793 Z M190.533203,133 L190.533203,126.296875 L188.239746,126.296875 L188.239746,125.131348 L194.276855,125.131348 L194.276855,126.296875 L191.994141,126.296875 L191.994141,133 L190.533203,133 Z M201.629883,131.925781 C202.392582,131.925781 202.968178,131.677818 203.356689,131.181885 C203.745201,130.685951 203.939453,129.985031 203.939453,129.079102 C203.939453,128.16243 203.745201,127.451663 203.356689,126.946777 C202.968178,126.441892 202.394372,126.189453 201.635254,126.189453 C200.872555,126.189453 200.295168,126.442787 199.903076,126.949463 C199.510984,127.456139 199.314941,128.166011 199.314941,129.079102 C199.314941,129.98145 199.510089,130.681475 199.900391,131.179199 C200.290692,131.676923 200.867184,131.925781 201.629883,131.925781 Z M201.624512,133.112793 C200.439284,133.112793 199.503828,132.753828 198.818115,132.035889 C198.132402,131.317949 197.789551,130.326992 197.789551,129.062988 C197.789551,127.791823 198.133297,126.799971 198.820801,126.087402 C199.508304,125.374834 200.444656,125.018555 201.629883,125.018555 C202.81511,125.018555 203.749671,125.375729 204.433594,126.090088 C205.117516,126.804447 205.459473,127.797194 205.459473,129.068359 C205.459473,130.325202 205.115726,131.313473 204.428223,132.033203 C203.740719,132.752933 202.806158,133.112793 201.624512,133.112793 Z M206.802246,133 L206.802246,125.109863 L209.42334,125.109863 C210.042809,125.109863 210.572752,125.189534 211.013184,125.348877 C211.453615,125.50822 211.801838,125.766925 212.057861,126.125 C212.313885,126.483075 212.441895,126.932452 212.441895,127.473145 C212.441895,127.849123 212.393555,128.183023 212.296875,128.474854 C212.200195,128.766684 212.040854,129.031656 211.818848,129.269775 C211.596841,129.507895 211.284426,129.691406 210.881592,129.820312 C210.478758,129.949219 209.992679,130.013672 209.42334,130.013672 C208.936358,130.013672 208.540692,129.999349 208.236328,129.970703 L208.236328,133 L206.802246,133 Z M209.267578,128.960938 C209.56478,128.960938 209.823485,128.932292 210.043701,128.875 C210.263917,128.817708 210.43579,128.744304 210.559326,128.654785 C210.682862,128.565266 210.781331,128.454265 210.854736,128.321777 C210.928142,128.18929 210.976481,128.06128 210.999756,127.937744 C211.023031,127.814208 211.034668,127.675456 211.034668,127.521484 C211.034668,127.088214 210.895021,126.75879 210.615723,126.533203 C210.336424,126.307616 209.942548,126.194824 209.434082,126.194824 L208.236328,126.194824 L208.236328,128.950195 C208.279297,128.957357 208.623044,128.960938 209.267578,128.960938 Z M213.526855,133 L213.526855,125.131348 L218.296387,125.131348 L218.237305,126.286133 L214.982422,126.286133 L214.982422,128.316406 L218.076172,128.316406 L218.076172,129.471191 L214.982422,129.471191 L214.982422,131.839844 L218.355469,131.839844 L218.307129,133 L213.526855,133 Z M219.676758,133 L219.676758,125.109863 L222.593262,125.109863 C222.990725,125.109863 223.335366,125.127767 223.627197,125.163574 C223.919028,125.199382 224.196532,125.264729 224.459717,125.359619 C224.722902,125.454509 224.935953,125.582519 225.098877,125.743652 C225.261801,125.904786 225.390706,126.115152 225.485596,126.374756 C225.580486,126.63436 225.62793,126.941404 225.62793,127.295898 C225.62793,128.341477 225.153488,129.02897 224.20459,129.358398 C224.39795,129.576824 224.637857,129.981442 224.924316,130.572266 L226.095215,133 L224.505371,133 L223.586914,130.942871 C223.239582,130.205237 223.02474,129.768393 222.942383,129.632324 C222.88151,129.628743 222.679201,129.626953 222.335449,129.626953 L221.116211,129.616211 L221.116211,133 L219.676758,133 Z M222.722168,128.574219 C223.280765,128.574219 223.681802,128.474855 223.925293,128.276123 C224.168784,128.077392 224.290527,127.757815 224.290527,127.317383 C224.290527,126.930662 224.166993,126.645997 223.919922,126.463379 C223.67285,126.280761 223.295087,126.189453 222.786621,126.189453 L221.116211,126.189453 L221.116211,128.568848 C221.169922,128.568848 221.436684,128.569743 221.916504,128.571533 C222.396324,128.573324 222.664876,128.574219 222.722168,128.574219 Z M226.336914,133 L229.231934,125.125977 L230.816406,125.125977 L233.668457,133 L232.175293,133 L231.396484,130.776367 L228.641113,130.776367 L227.856934,133 L226.336914,133 Z M229.006348,129.691406 L231.025879,129.691406 C230.381344,127.625315 230.05013,126.558269 230.032227,126.490234 L229.006348,129.691406 Z M235.542969,133 L235.542969,126.296875 L233.249512,126.296875 L233.249512,125.131348 L239.286621,125.131348 L239.286621,126.296875 L237.003906,126.296875 L237.003906,133 L235.542969,133 Z M243.70166,131.925781 C244.464359,131.925781 245.039956,131.677818 245.428467,131.181885 C245.816978,130.685951 246.01123,129.985031 246.01123,129.079102 C246.01123,128.16243 245.816978,127.451663 245.428467,126.946777 C245.039956,126.441892 244.46615,126.189453 243.707031,126.189453 C242.944332,126.189453 242.366945,126.442787 241.974854,126.949463 C241.582762,127.456139 241.386719,128.166011 241.386719,129.079102 C241.386719,129.98145 241.581867,130.681475 241.972168,131.179199 C242.362469,131.676923 242.938961,131.925781 243.70166,131.925781 Z M243.696289,133.112793 C242.511062,133.112793 241.575606,132.753828 240.889893,132.035889 C240.20418,131.317949 239.861328,130.326992 239.861328,129.062988 C239.861328,127.791823 240.205075,126.799971 240.892578,126.087402 C241.580082,125.374834 242.516433,125.018555 243.70166,125.018555 C244.886887,125.018555 245.821448,125.375729 246.505371,126.090088 C247.189294,126.804447 247.53125,127.797194 247.53125,129.068359 C247.53125,130.325202 247.187503,131.313473 246.5,132.033203 C245.812497,132.752933 244.877936,133.112793 243.696289,133.112793 Z M248.874023,133 L248.874023,125.109863 L251.790527,125.109863 C252.18799,125.109863 252.532632,125.127767 252.824463,125.163574 C253.116294,125.199382 253.393798,125.264729 253.656982,125.359619 C253.920167,125.454509 254.133219,125.582519 254.296143,125.743652 C254.459067,125.904786 254.587972,126.115152 254.682861,126.374756 C254.777751,126.63436 254.825195,126.941404 254.825195,127.295898 C254.825195,128.341477 254.350753,129.02897 253.401855,129.358398 C253.595216,129.576824 253.835122,129.981442 254.121582,130.572266 L255.29248,133 L253.702637,133 L252.78418,130.942871 C252.436847,130.205237 252.222006,129.768393 252.139648,129.632324 C252.078776,129.628743 251.876467,129.626953 251.532715,129.626953 L250.313477,129.616211 L250.313477,133 L248.874023,133 Z M251.919434,128.574219 C252.47803,128.574219 252.879068,128.474855 253.122559,128.276123 C253.366049,128.077392 253.487793,127.757815 253.487793,127.317383 C253.487793,126.930662 253.364259,126.645997 253.117188,126.463379 C252.870116,126.280761 252.492353,126.189453 251.983887,126.189453 L250.313477,126.189453 L250.313477,128.568848 C250.367188,128.568848 250.633949,128.569743 251.11377,128.571533 C251.59359,128.573324 251.862142,128.574219 251.919434,128.574219 Z" id="DOT-OPERATOR" fill="#4A4A4A"></path>
    </g>
</svg>