<?xml version="1.0" encoding="UTF-8"?>
<svg width="421px" height="208px" viewBox="0 0 421 208" version="1.1" xmlns="http://www.w3.org/2000/svg" xmlns:xlink="http://www.w3.org/1999/xlink">
    <!-- Generator: Sketch 51.2 (57519) - http://www.bohemiancoding.com/sketch -->
    <title>object access bracket</title>
    <desc>Created with Sketch.</desc>
    <defs></defs>
    <g id="object-access-bracket" stroke="none" stroke-width="1" fill="none" fill-rule="evenodd">
        <rect fill="#FFFFFF" x="0" y="0" width="421" height="208"></rect>
        <text id="spaceship[‘Fuel-Type" font-family="Courier" font-size="15" font-weight="normal">
            <tspan x="106.983154" y="129" fill="#BD10E0">spaceship</tspan>
            <tspan x="187.996338" y="129" fill="#9B9B9B">[</tspan>
            <tspan x="196.997803" y="129" fill="#F5A623">‘Fuel Type’</tspan>
            <tspan x="296.013916" y="129" fill="#9B9B9B">];</tspan>
            <tspan x="314.016846" y="129" fill="#4A90E2"></tspan>
        </text>
        <path d="M203.430664,83 L203.430664,75.1098633 L206.051758,75.1098633 C206.671227,75.1098633 207.20117,75.1895337 207.641602,75.348877 C208.082033,75.5082202 208.430256,75.7669253 208.686279,76.125 C208.942303,76.4830747 209.070312,76.9324517 209.070312,77.4731445 C209.070312,77.849123 209.021973,78.1830226 208.925293,78.4748535 C208.828613,78.7666844 208.669272,79.0316557 208.447266,79.2697754 C208.225259,79.5078951 207.912844,79.6914056 207.51001,79.8203125 C207.107176,79.9492194 206.621097,80.0136719 206.051758,80.0136719 C205.564776,80.0136719 205.16911,79.9993491 204.864746,79.9707031 L204.864746,83 L203.430664,83 Z M205.895996,78.9609375 C206.193198,78.9609375 206.451903,78.932292 206.672119,78.875 C206.892335,78.817708 207.064208,78.7443038 207.187744,78.6547852 C207.31128,78.5652665 207.409749,78.454265 207.483154,78.3217773 C207.55656,78.1892897 207.604899,78.0612799 207.628174,77.9377441 C207.651449,77.8142084 207.663086,77.6754565 207.663086,77.5214844 C207.663086,77.088214 207.523439,76.7587902 207.244141,76.5332031 C206.964842,76.3076161 206.570966,76.1948242 206.0625,76.1948242 L204.864746,76.1948242 L204.864746,78.9501953 C204.907715,78.9573568 205.251462,78.9609375 205.895996,78.9609375 Z M210.117676,83 L210.117676,75.1098633 L213.03418,75.1098633 C213.431643,75.1098633 213.776284,75.1277667 214.068115,75.1635742 C214.359946,75.1993817 214.63745,75.2647293 214.900635,75.3596191 C215.16382,75.4545089 215.376871,75.5825187 215.539795,75.7436523 C215.702719,75.904786 215.831624,76.1151517 215.926514,76.3747559 C216.021403,76.63436 216.068848,76.9414045 216.068848,77.2958984 C216.068848,78.3414766 215.594406,79.0289697 214.645508,79.3583984 C214.838868,79.576824 215.078775,79.9814424 215.365234,80.5722656 L216.536133,83 L214.946289,83 L214.027832,80.9428711 C213.6805,80.2052372 213.465658,79.7683926 213.383301,79.6323242 C213.322428,79.6287435 213.120119,79.6269531 212.776367,79.6269531 L211.557129,79.6162109 L211.557129,83 L210.117676,83 Z M213.163086,78.5742188 C213.721682,78.5742188 214.12272,78.4748545 214.366211,78.276123 C214.609702,78.0773916 214.731445,77.7578147 214.731445,77.3173828 C214.731445,76.9306621 214.607911,76.645997 214.36084,76.4633789 C214.113768,76.2807608 213.736005,76.1894531 213.227539,76.1894531 L211.557129,76.1894531 L211.557129,78.5688477 C211.61084,78.5688477 211.877602,78.5697428 212.357422,78.5715332 C212.837242,78.5733236 213.105794,78.5742188 213.163086,78.5742188 Z M221.144531,81.9257812 C221.90723,81.9257812 222.482827,81.6778182 222.871338,81.1818848 C223.259849,80.6859513 223.454102,79.9850306 223.454102,79.0791016 C223.454102,78.1624303 223.259849,77.4516627 222.871338,76.9467773 C222.482827,76.441892 221.909021,76.1894531 221.149902,76.1894531 C220.387203,76.1894531 219.809816,76.4427872 219.417725,76.9494629 C219.025633,77.4561386 218.82959,78.1660111 218.82959,79.0791016 C218.82959,79.9814498 219.024738,80.6814754 219.415039,81.1791992 C219.80534,81.6769231 220.381832,81.9257812 221.144531,81.9257812 Z M221.13916,83.112793 C219.953933,83.112793 219.018477,82.7538285 218.332764,82.0358887 C217.647051,81.3179489 217.304199,80.326992 217.304199,79.0629883 C217.304199,77.7918231 217.647946,76.799971 218.335449,76.0874023 C219.022953,75.3748337 219.959304,75.0185547 221.144531,75.0185547 C222.329759,75.0185547 223.264319,75.3757289 223.948242,76.0900879 C224.632165,76.8044469 224.974121,77.7971942 224.974121,79.0683594 C224.974121,80.3252016 224.630375,81.313473 223.942871,82.0332031 C223.255368,82.7529333 222.320807,83.112793 221.13916,83.112793 Z M226.316895,83 L226.316895,75.1098633 L228.937988,75.1098633 C229.557458,75.1098633 230.0874,75.1895337 230.527832,75.348877 C230.968264,75.5082202 231.316486,75.7669253 231.57251,76.125 C231.828533,76.4830747 231.956543,76.9324517 231.956543,77.4731445 C231.956543,77.849123 231.908204,78.1830226 231.811523,78.4748535 C231.714843,78.7666844 231.555502,79.0316557 231.333496,79.2697754 C231.11149,79.5078951 230.799074,79.6914056 230.39624,79.8203125 C229.993406,79.9492194 229.507327,80.0136719 228.937988,80.0136719 C228.451007,80.0136719 228.05534,79.9993491 227.750977,79.9707031 L227.750977,83 L226.316895,83 Z M228.782227,78.9609375 C229.079429,78.9609375 229.338134,78.932292 229.55835,78.875 C229.778566,78.817708 229.950439,78.7443038 230.073975,78.6547852 C230.19751,78.5652665 230.295979,78.454265 230.369385,78.3217773 C230.44279,78.1892897 230.491129,78.0612799 230.514404,77.9377441 C230.537679,77.8142084 230.549316,77.6754565 230.549316,77.5214844 C230.549316,77.088214 230.409669,76.7587902 230.130371,76.5332031 C229.851073,76.3076161 229.457197,76.1948242 228.94873,76.1948242 L227.750977,76.1948242 L227.750977,78.9501953 C227.793946,78.9573568 228.137692,78.9609375 228.782227,78.9609375 Z M233.041504,83 L233.041504,75.1313477 L237.811035,75.1313477 L237.751953,76.2861328 L234.49707,76.2861328 L234.49707,78.3164062 L237.59082,78.3164062 L237.59082,79.4711914 L234.49707,79.4711914 L234.49707,81.8398438 L237.870117,81.8398438 L237.821777,83 L233.041504,83 Z M239.191406,83 L239.191406,75.1098633 L242.10791,75.1098633 C242.505373,75.1098633 242.850015,75.1277667 243.141846,75.1635742 C243.433677,75.1993817 243.71118,75.2647293 243.974365,75.3596191 C244.23755,75.4545089 244.450601,75.5825187 244.613525,75.7436523 C244.776449,75.904786 244.905354,76.1151517 245.000244,76.3747559 C245.095134,76.63436 245.142578,76.9414045 245.142578,77.2958984 C245.142578,78.3414766 244.668136,79.0289697 243.719238,79.3583984 C243.912599,79.576824 244.152505,79.9814424 244.438965,80.5722656 L245.609863,83 L244.02002,83 L243.101562,80.9428711 C242.75423,80.2052372 242.539388,79.7683926 242.457031,79.6323242 C242.396159,79.6287435 242.193849,79.6269531 241.850098,79.6269531 L240.630859,79.6162109 L240.630859,83 L239.191406,83 Z M242.236816,78.5742188 C242.795413,78.5742188 243.196451,78.4748545 243.439941,78.276123 C243.683432,78.0773916 243.805176,77.7578147 243.805176,77.3173828 C243.805176,76.9306621 243.681642,76.645997 243.43457,76.4633789 C243.187499,76.2807608 242.809736,76.1894531 242.30127,76.1894531 L240.630859,76.1894531 L240.630859,78.5688477 C240.684571,78.5688477 240.951332,78.5697428 241.431152,78.5715332 C241.910972,78.5733236 242.179524,78.5742188 242.236816,78.5742188 Z M248.236328,83 L248.236328,76.296875 L245.942871,76.296875 L245.942871,75.1313477 L251.97998,75.1313477 L251.97998,76.296875 L249.697266,76.296875 L249.697266,83 L248.236328,83 Z M254.697754,83 L254.697754,79.8793945 L251.974609,75.1313477 L253.553711,75.1313477 L255.428223,78.5366211 L257.313477,75.1313477 L258.871094,75.1313477 L256.158691,79.8525391 L256.158691,83 L254.697754,83 Z M262.555664,83 L262.555664,75.1313477 L264.102539,75.1313477 C264.381837,75.5681988 264.949377,76.4490494 265.805176,77.7739258 C266.660974,79.0988022 267.181965,79.9044582 267.368164,80.190918 C267.421875,80.2732752 267.514078,80.412027 267.644775,80.6071777 C267.775473,80.8023284 267.867676,80.9410803 267.921387,81.0234375 C267.896321,79.7952413 267.883789,79.1578778 267.883789,79.1113281 L267.883789,75.1313477 L269.210449,75.1313477 L269.210449,83 L267.64209,83 L264.091797,77.4677734 L263.833984,77.043457 C263.86263,77.9887743 263.876953,78.6529929 263.876953,79.0361328 L263.876953,83 L262.555664,83 Z M270.037598,83 L272.932617,75.1259766 L274.51709,75.1259766 L277.369141,83 L275.875977,83 L275.097168,80.7763672 L272.341797,80.7763672 L271.557617,83 L270.037598,83 Z M272.707031,79.6914062 L274.726562,79.6914062 C274.082028,77.6253152 273.750814,76.5582686 273.73291,76.4902344 L272.707031,79.6914062 Z M278.15332,83 L278.15332,75.1313477 L279.87207,75.1313477 L282.251465,80.8139648 L284.646973,75.1313477 L286.344238,75.1313477 L286.344238,83 L285.001465,83 L285.001465,79.1113281 L285.044434,76.8823242 L284.845703,77.4731445 L282.831543,82.4628906 L281.585449,82.4628906 L279.614258,77.4462891 L279.415527,76.8554688 L279.463867,79.1328125 L279.463867,83 L278.15332,83 Z M288.041504,83 L288.041504,75.1313477 L292.811035,75.1313477 L292.751953,76.2861328 L289.49707,76.2861328 L289.49707,78.3164062 L292.59082,78.3164062 L292.59082,79.4711914 L289.49707,79.4711914 L289.49707,81.8398438 L292.870117,81.8398438 L292.821777,83 L288.041504,83 Z" id="PROPERTY-NAME" fill="#4A4A4A"></path>
        <path d="M132.544189,81.9257812 C133.306889,81.9257812 133.882485,81.6778182 134.270996,81.1818848 C134.659507,80.6859513 134.85376,79.9850306 134.85376,79.0791016 C134.85376,78.1624303 134.659507,77.4516627 134.270996,76.9467773 C133.882485,76.441892 133.308679,76.1894531 132.549561,76.1894531 C131.786861,76.1894531 131.209475,76.4427872 130.817383,76.9494629 C130.425291,77.4561386 130.229248,78.1660111 130.229248,79.0791016 C130.229248,79.9814498 130.424396,80.6814754 130.814697,81.1791992 C131.204999,81.6769231 131.78149,81.9257812 132.544189,81.9257812 Z M132.538818,83.112793 C131.353591,83.112793 130.418135,82.7538285 129.732422,82.0358887 C129.046709,81.3179489 128.703857,80.326992 128.703857,79.0629883 C128.703857,77.7918231 129.047604,76.799971 129.735107,76.0874023 C130.422611,75.3748337 131.358962,75.0185547 132.544189,75.0185547 C133.729417,75.0185547 134.663978,75.3757289 135.3479,76.0900879 C136.031823,76.8044469 136.373779,77.7971942 136.373779,79.0683594 C136.373779,80.3252016 136.030033,81.313473 135.342529,82.0332031 C134.655026,82.7529333 133.720465,83.112793 132.538818,83.112793 Z M137.75415,83 L137.75415,75.1313477 L140.20874,75.1313477 C141.250738,75.1313477 142.027748,75.2835271 142.539795,75.5878906 C143.051842,75.8922541 143.307861,76.3989222 143.307861,77.1079102 C143.307861,77.2224941 143.3007,77.3352859 143.286377,77.4462891 C143.272054,77.5572922 143.239828,77.6835117 143.189697,77.8249512 C143.139567,77.9663907 143.073324,78.0944005 142.990967,78.2089844 C142.90861,78.3235683 142.794027,78.4354649 142.647217,78.5446777 C142.500406,78.6538905 142.328533,78.738932 142.131592,78.7998047 C142.618573,78.9179693 142.990966,79.1444482 143.248779,79.479248 C143.506593,79.8140479 143.635498,80.2267228 143.635498,80.7172852 C143.635498,81.4584998 143.373212,82.0242494 142.848633,82.4145508 C142.324053,82.8048522 141.598068,83 140.670654,83 L137.75415,83 Z M139.209717,81.9472656 L140.471924,81.9472656 C141.589117,81.9472656 142.147705,81.510421 142.147705,80.6367188 C142.147705,80.1962869 142.008058,79.8793955 141.72876,79.6860352 C141.449461,79.4926748 141.017988,79.3959961 140.434326,79.3959961 L139.209717,79.3959961 L139.209717,81.9472656 Z M139.209717,78.3808594 L140.455811,78.3808594 C141.419032,78.3808594 141.900635,78.0138383 141.900635,77.2797852 C141.900635,76.8679992 141.761883,76.5851245 141.484375,76.4311523 C141.206867,76.2771802 140.765547,76.2001953 140.1604,76.2001953 L139.209717,76.2001953 L139.209717,78.3808594 Z M143.673096,84.7241211 L143.614014,83.5800781 C143.78589,83.6087241 143.973876,83.6230469 144.177979,83.6230469 C144.575441,83.6230469 144.843993,83.5209971 144.983643,83.3168945 C145.123292,83.1127919 145.193115,82.7762068 145.193115,82.3071289 L145.193115,75.1098633 L146.654053,75.1098633 L146.654053,82.2104492 C146.654053,82.6616233 146.61377,83.042072 146.533203,83.3518066 C146.452636,83.6615413 146.31657,83.9247222 146.125,84.1413574 C145.93343,84.3579926 145.679201,84.5164383 145.362305,84.6166992 C145.045409,84.7169601 144.652427,84.7670898 144.18335,84.7670898 C143.986409,84.7670898 143.816326,84.7527671 143.673096,84.7241211 Z M148.313721,83 L148.313721,75.1313477 L153.083252,75.1313477 L153.02417,76.2861328 L149.769287,76.2861328 L149.769287,78.3164062 L152.863037,78.3164062 L152.863037,79.4711914 L149.769287,79.4711914 L149.769287,81.8398438 L153.142334,81.8398438 L153.093994,83 L148.313721,83 Z M157.93335,83.112793 C156.78393,83.112793 155.872643,82.7511429 155.199463,82.027832 C154.526282,81.3045211 154.189697,80.3055077 154.189697,79.0307617 C154.189697,77.8204692 154.5415,76.8492061 155.245117,76.1169434 C155.948734,75.3846806 156.869867,75.0185547 158.008545,75.0185547 C158.928797,75.0185547 159.707598,75.2316059 160.344971,75.6577148 L159.888428,76.7587891 C159.27612,76.3828106 158.660241,76.1948242 158.040771,76.1948242 C157.317461,76.1948242 156.745445,76.4553197 156.324707,76.9763184 C155.903969,77.4973171 155.693604,78.1964474 155.693604,79.0737305 C155.693604,79.9832402 155.896808,80.6868465 156.303223,81.1845703 C156.709637,81.6822942 157.288815,81.9311523 158.040771,81.9311523 C158.699629,81.9311523 159.353105,81.7664404 160.001221,81.4370117 L160.19458,82.5756836 C159.593015,82.9337583 158.839279,83.112793 157.93335,83.112793 Z M163.009033,83 L163.009033,76.296875 L160.715576,76.296875 L160.715576,75.1313477 L166.752686,75.1313477 L166.752686,76.296875 L164.469971,76.296875 L164.469971,83 L163.009033,83 Z" id="OBJECT" fill="#4A4A4A"></path>
        <g id="Group" transform="translate(247.500000, 100.500000) rotate(-360.000000) translate(-247.500000, -100.500000) translate(197.000000, 89.000000)" stroke="#4A4A4A" stroke-linecap="square">
            <path d="M100,12 L100,22.5" id="Line-4-Copy" transform="translate(100.000000, 17.250000) scale(-1, -1) translate(-100.000000, -17.250000) "></path>
            <path d="M1,12 L1,22.5" id="Line-4-Copy-2" transform="translate(1.000000, 17.250000) scale(-1, -1) translate(-1.000000, -17.250000) "></path>
            <path d="M1,11 L100.5,11" id="Line-5-Copy" transform="translate(50.750000, 11.000000) scale(-1, -1) translate(-50.750000, -11.000000) "></path>
            <path d="M51,0.5 L51,11" id="Line-6-Copy" transform="translate(51.000000, 5.750000) scale(-1, -1) translate(-51.000000, -5.750000) "></path>
        </g>
        <g id="Group-Copy" transform="translate(149.500000, 100.500000) rotate(-360.000000) translate(-149.500000, -100.500000) translate(108.000000, 89.000000)" stroke="#4A4A4A" stroke-linecap="square">
            <path d="M82,12 L82,22.5" id="Line-4-Copy" transform="translate(82.000000, 17.250000) scale(-1, -1) translate(-82.000000, -17.250000) "></path>
            <path d="M1,12 L1,22.5" id="Line-4-Copy-2" transform="translate(1.000000, 17.250000) scale(-1, -1) translate(-1.000000, -17.250000) "></path>
            <path d="M0.5,11 L82.5,11" id="Line-5-Copy" transform="translate(41.500000, 11.000000) scale(-1, -1) translate(-41.500000, -11.000000) "></path>
            <path d="M41,0.5 L41,11" id="Line-6-Copy" transform="translate(41.000000, 5.750000) scale(-1, -1) translate(-41.000000, -5.750000) "></path>
        </g>
    </g>
</svg>