<svg viewBox="0 0 2043 770.42" xmlns="http://www.w3.org/2000/svg"><path d="m157.45 413.45q-10.68 0-17.09-3.65l1.18-8.66a35.75 35.75 0 0 0 7.39 2.84 30.79 30.79 0 0 0 8.17 1.25 10.67 10.67 0 0 0 6-1.43 4.83 4.83 0 0 0 2.17-4.2 4.63 4.63 0 0 0 -2-4 37.14 37.14 0 0 0 -7.62-3.61c-1.29-.46-2.13-.77-2.51-.92q-6.67-2.6-9.62-5.78c-2-2.12-2.95-5-2.95-8.63q0-6.6 4.77-10.11t13.3-3.52a35.92 35.92 0 0 1 16.21 3.48l-2.85 8a31.14 31.14 0 0 0 -13.14-3.21 10.56 10.56 0 0 0 -5.42 1.17 3.82 3.82 0 0 0 -2 3.53 4 4 0 0 0 1.89 3.5 40.89 40.89 0 0 0 7.38 3.27c.12 0 .5.16 1.15.4s1.14.42 1.49.57q6.65 2.42 9.76 5.78a12.37 12.37 0 0 1 3.12 8.77q0 7.24-4.92 11.2t-13.86 3.96z" fill="#3a10e5"/><path d="m188 432.65v-68.38h9.89l1.23 6.77a16.29 16.29 0 0 1 6.31-5.91 18.41 18.41 0 0 1 8.77-2.09 17.18 17.18 0 0 1 10.43 3.3 20.47 20.47 0 0 1 6.84 9 33.76 33.76 0 0 1 2.33 12.86q0 11.2-5.43 18.26a17.58 17.58 0 0 1 -14.7 7.05 18.65 18.65 0 0 1 -8.29-1.82 18.17 18.17 0 0 1 -6.21-4.95q.34 6.33.35 7.12v18.24zm23.21-27.95a9.34 9.34 0 0 0 8.11-4.31q3-4.31 3-12.3t-3-12.22a9.71 9.71 0 0 0 -8.3-4.08q-11.43 0-11.56 15.55 0 9 3 13.16t8.76 4.2z" fill="#3a10e5"/><path d="m258.48 413.49q-6.72 0-10.88-3.71t-4.15-10.7q0-7.51 4.92-11.14t14.85-4.6l2.95-.35 3.56-.35c1.32-.12 2.36-.22 3.12-.31v-2.55c0-2.93-.68-5.06-2-6.39s-3.4-2-6.16-2q-5.88 0-14.54 3.3c0-.09-.51-1.42-1.45-4s-1.42-3.9-1.45-4a46.43 46.43 0 0 1 18.46-3.65q9.75 0 14.19 4.25t4.44 13.73v31.51h-8.53c0-.12-.35-1.1-1-2.95s-.93-2.82-.93-2.94a27.07 27.07 0 0 1 -7 5.16 19.28 19.28 0 0 1 -8.4 1.69zm3.12-8.17a12.51 12.51 0 0 0 7-1.92 11.11 11.11 0 0 0 4.24-4.63v-9.32l-2.3.18c-1.45.12-2.24.17-2.35.17q-7 .61-10.24 2.64t-3.26 6.5a6.09 6.09 0 0 0 1.81 4.73 7.33 7.33 0 0 0 5.1 1.65z" fill="#3a10e5"/><path d="m319.76 413.49q-11.08 0-17.25-6.59t-6.18-18.85q0-11.87 6.48-18.42t17.08-6.55a26.54 26.54 0 0 1 14.32 3.65l-2.72 8.27a24.21 24.21 0 0 0 -11.12-3.12 11.21 11.21 0 0 0 -9.21 4.17q-3.36 4.19-3.36 12.18t3.32 12.3a11.25 11.25 0 0 0 9.38 4.22 22.31 22.31 0 0 0 12.18-3.75l1.09 8.74a21.07 21.07 0 0 1 -6.28 2.9 29.74 29.74 0 0 1 -7.73.85z" fill="#3a10e5"/><path d="m367.59 413.49q-11.65 0-18.13-6.7t-6.46-18.52q0-11.52 6.11-18.33t16.65-6.86q10 0 15.49 6.25t5.52 16.56v2.42s0 1.93 0 2.46h-32.19q.18 6.76 3.71 10.48t9.71 3.75a30.36 30.36 0 0 0 15.2-4.13l1.63 8.18a32.19 32.19 0 0 1 -17.24 4.44zm-12.79-30h21.09c0-3.93-.89-6.94-2.68-9a9.19 9.19 0 0 0 -7.42-3.17 10.18 10.18 0 0 0 -7.5 3.08q-3.04 3.06-3.49 9.12z" fill="#3a10e5"/><path d="m414.23 413.45q-10.68 0-17.09-3.65l1.19-8.66a35.41 35.41 0 0 0 7.38 2.84 30.79 30.79 0 0 0 8.17 1.25 10.65 10.65 0 0 0 6-1.43 4.83 4.83 0 0 0 2.17-4.2 4.61 4.61 0 0 0 -2-4 37.14 37.14 0 0 0 -7.62-3.61c-1.29-.46-2.13-.77-2.51-.92q-6.67-2.6-9.62-5.78c-2-2.12-2.95-5-2.95-8.63q0-6.6 4.77-10.11t13.3-3.52a35.92 35.92 0 0 1 16.21 3.48l-2.85 7.95a31.18 31.18 0 0 0 -13.14-3.21 10.58 10.58 0 0 0 -5.43 1.17 3.82 3.82 0 0 0 -2 3.53 4 4 0 0 0 1.89 3.5 40.75 40.75 0 0 0 7.39 3.27c.11 0 .49.16 1.14.4s1.14.42 1.49.57q6.64 2.42 9.76 5.78a12.37 12.37 0 0 1 3.12 8.77q0 7.24-4.92 11.2t-13.85 4.01z" fill="#3a10e5"/><path d="m444.8 412.57v-66.1l11.51-.74v13.93c0 .67 0 2.54-.13 5.6s-.13 4.62-.13 4.68q5.74-6.85 15.46-6.86 8.08 0 12.55 4.64t4.46 14.28v30.59h-11.52v-29.33q0-5.94-1.89-8.71t-6.42-2.76a12.23 12.23 0 0 0 -6.85 1.95 12.46 12.46 0 0 0 -4.49 5 43.25 43.25 0 0 0 -1.05 10.55v23.25z" fill="#3a10e5"/><path d="m502.82 357.24v-9.84h11.56v9.84zm0 55.33v-48.3h11.52v48.3z" fill="#3a10e5"/><path d="m529 432.65v-68.38h9.89l1.23 6.77a16.22 16.22 0 0 1 6.31-5.91 18.4 18.4 0 0 1 8.76-2.09 17.18 17.18 0 0 1 10.44 3.3 20.37 20.37 0 0 1 6.83 9 33.57 33.57 0 0 1 2.33 12.86q0 11.2-5.42 18.26a17.58 17.58 0 0 1 -14.7 7.05 18.65 18.65 0 0 1 -8.29-1.82 18.2 18.2 0 0 1 -6.22-4.95q.36 6.33.36 7.12v18.24zm23.21-27.95a9.31 9.31 0 0 0 8.1-4.31q3-4.31 3-12.3t-3-12.22a9.71 9.71 0 0 0 -8.3-4.08q-11.43 0-11.56 15.55 0 9 3 13.16t8.79 4.2z" fill="#3a10e5"/><path d="m613.49 424.26v-77.92h20.39v7.91h-9.32v62.05h9.32v8z" fill="#a2a2a6"/><path d="m641.5 369.81 4.75-21.67h9.58l-7 21.67z" fill="#cca900"/><path d="m667.93 412.57v-64.38h38.07l-.43 9.45h-25.81v18.28h24.56v9.36h-24.56v27.29z" fill="#cca900"/><path d="m752.85 408.77q-5.75 4.73-15.16 4.72t-15.14-4.7q-5.73-4.71-5.73-13.8v-30.72h11.56v30.28q0 5.4 2.26 7.82c1.51 1.61 3.9 2.42 7.19 2.42s5.57-.8 7-2.4 2.22-4.21 2.22-7.84v-30.28h11.51v30.73q.05 9-5.71 13.77z" fill="#cca900"/><path d="m794.14 413.49q-11.64 0-18.13-6.7t-6.48-18.52q0-11.52 6.11-18.33t16.65-6.86q10 0 15.49 6.25t5.52 16.56v2.42s0 1.93 0 2.46h-32.17q.18 6.76 3.72 10.48t9.73 3.71a30.36 30.36 0 0 0 15.2-4.13l1.63 8.18a32.16 32.16 0 0 1 -17.27 4.48zm-12.79-30h21.09c0-3.93-.89-6.94-2.68-9a9.19 9.19 0 0 0 -7.42-3.17 10.14 10.14 0 0 0 -7.49 3.08q-3.06 3.06-3.5 9.12z" fill="#cca900"/><path d="m842.28 413.23a24.77 24.77 0 0 1 -8.24-1.17 10.66 10.66 0 0 1 -5.16-3.71 15.44 15.44 0 0 1 -2.64-6.07 42.73 42.73 0 0 1 -.75-8.74v-47.07l11.52-.74v47.59c0 4.34.51 7.27 1.53 8.81s3 2.31 6 2.31a39.85 39.85 0 0 0 5.58-.49l.31 8.22-1.08.22c-.69.15-1.35.27-2 .38s-1.42.2-2.39.3a23.79 23.79 0 0 1 -2.68.16z" fill="#cca900"/><path d="m898.83 412.57v-54.85h-18.76v-9.53h49.39v9.53h-18.68v54.85z" fill="#cca900"/><path d="m941.17 432.91a52.88 52.88 0 0 1 -6-.35l-.57-8.92a48.22 48.22 0 0 0 5.14.22 9.7 9.7 0 0 0 10.42-7.21c.12-.29.7-1.94 1.76-5l-19.43-47.42h12.31l12.7 35q1.4-5.24 6.3-19.43t5.39-15.6h12.3q-20.09 53.09-20.26 53.53-3.12 8.13-7.86 11.62t-12.2 3.56z" fill="#cca900"/><path d="m990.36 432.65v-68.38h9.89l1.23 6.77a16.29 16.29 0 0 1 6.31-5.91 18.41 18.41 0 0 1 8.77-2.09 17.18 17.18 0 0 1 10.43 3.3 20.47 20.47 0 0 1 6.84 9 33.76 33.76 0 0 1 2.32 12.86q0 11.2-5.42 18.26a17.58 17.58 0 0 1 -14.7 7.05 18.65 18.65 0 0 1 -8.29-1.82 18.17 18.17 0 0 1 -6.21-4.95q.35 6.33.35 7.12v18.24zm23.21-27.95a9.34 9.34 0 0 0 8.11-4.31q3-4.31 3-12.3t-3-12.22a9.71 9.71 0 0 0 -8.3-4.08q-11.43 0-11.56 15.55 0 9 3 13.16t8.75 4.2z" fill="#cca900"/><path d="m1070.58 413.49q-11.64 0-18.12-6.7t-6.46-18.52q0-11.52 6.11-18.33t16.66-6.86q10 0 15.49 6.25t5.51 16.56v2.42s0 1.93 0 2.46h-32.12q.17 6.76 3.71 10.48t9.64 3.75a30.39 30.39 0 0 0 15.21-4.13l1.62 8.18a32.16 32.16 0 0 1 -17.25 4.44zm-12.78-30h21.09c0-3.93-.89-6.94-2.68-9a9.21 9.21 0 0 0 -7.43-3.17 10.14 10.14 0 0 0 -7.49 3.08q-3.06 3.06-3.49 9.12z" fill="#cca900"/><path d="m1098.6 369.81 4.74-21.67h9.58l-7 21.67z" fill="#cca900"/><path d="m1120.37 424.26v-8h9.27v-62.01h-9.27v-7.91h20.39v77.92z" fill="#a2a2a6"/><path d="m1180 379.43v-8.43h44.74v8.48zm0 17.45v-8.39h44.74v8.39z" fill="#a2a2a6"/><path d="m1274.83 348.14-4.75 21.67h-9.58l7-21.67z" fill="#a2a2a6"/><path d="m1299.37 412.57-19.25-48.3h12.22q.69 2 4.46 12.28t5 14q2.51 7.31 3.61 11s.25-1 .74-2.85 1-3.64 1.43-5.3.74-2.66.86-3q0-.09 4-12.13t4.72-14.06h12.13l-18.29 48.36z" fill="#a2a2a6"/><path d="m1360 413.49q-11.65 0-18.13-6.7t-6.48-18.52q0-11.52 6.1-18.33t16.66-6.86q10 0 15.49 6.25t5.52 16.56v2.42s0 1.93 0 2.46h-32.16q.18 6.76 3.71 10.48t9.74 3.71a30.36 30.36 0 0 0 15.2-4.13l1.63 8.18a32.19 32.19 0 0 1 -17.28 4.48zm-12.79-30h21.09c0-3.93-.89-6.94-2.68-9a9.21 9.21 0 0 0 -7.43-3.17 10.17 10.17 0 0 0 -7.49 3.08q-3.07 3.06-3.5 9.12z" fill="#a2a2a6"/><path d="m1400.87 434.19-.65-9.32h5.84q10.15 0 14.19-2.7t4-9.91c0-2-.09-4.09-.27-6.37a21.7 21.7 0 0 1 -2.17 2.61 16.14 16.14 0 0 1 -2.59 2.05 11.63 11.63 0 0 1 -3.74 1.51 21.74 21.74 0 0 1 -4.94.51 20.21 20.21 0 0 1 -15.76-6.9q-6.16-6.9-6.17-17.8a31.12 31.12 0 0 1 1.71-10.57 21.82 21.82 0 0 1 4.66-7.84 20.44 20.44 0 0 1 15-6.38q9.7 0 14.45 7.08l.79-5.89h10.29v44.87a54.82 54.82 0 0 1 -.35 6.48 29.52 29.52 0 0 1 -1.23 5.54 17 17 0 0 1 -2.31 4.63 17.22 17.22 0 0 1 -3.58 3.61 18.92 18.92 0 0 1 -5.08 2.66 35.61 35.61 0 0 1 -6.79 1.58 61.74 61.74 0 0 1 -8.7.55zm11.56-29.66q11.91 0 12-16v-1.63q-.09-7.15-3-11.07t-8.48-4q-6.33 0-9.58 4.33t-3.25 11.67a20.51 20.51 0 0 0 3.28 11.87 10.31 10.31 0 0 0 9.03 4.83z" fill="#a2a2a6"/><path d="m1471.91 413.49q-11.64 0-18.13-6.7t-6.48-18.52q0-11.52 6.11-18.33t16.65-6.86q10 0 15.5 6.25t5.51 16.56v2.42s0 1.93 0 2.46h-32.17q.18 6.76 3.72 10.48t9.73 3.71a30.36 30.36 0 0 0 15.2-4.13l1.63 8.18a32.16 32.16 0 0 1 -17.27 4.48zm-12.79-30h21.1c0-3.93-.9-6.94-2.69-9a9.19 9.19 0 0 0 -7.42-3.17 10.14 10.14 0 0 0 -7.49 3.08q-3.06 3.06-3.5 9.12z" fill="#a2a2a6"/><path d="m1522.42 413.23a24.58 24.58 0 0 1 -8.19-1.17 10.48 10.48 0 0 1 -5.12-3.67 15.61 15.61 0 0 1 -2.62-5.91 39.06 39.06 0 0 1 -.77-8.41v-22.81h-7.91l.44-6.24 8.26-.75 3.7-13.09 7-.05v13.14h12v7h-12v23c0 3.66.52 6.27 1.58 7.82s3 2.33 5.84 2.33a35.69 35.69 0 0 0 5.37-.42l.31 8.26c-.06 0-.42.07-1.07.2s-1.29.25-1.89.35-1.37.2-2.31.28-1.8.14-2.62.14z" fill="#a2a2a6"/><path d="m1553.82 413.49q-6.72 0-10.88-3.71t-4.15-10.7q0-7.51 4.92-11.14t14.85-4.6l3-.35 3.56-.35c1.32-.12 2.36-.22 3.12-.31v-2.55q0-4.39-2-6.39t-6.15-2q-5.89 0-14.55 3.3c0-.09-.51-1.42-1.45-4s-1.42-3.9-1.45-4a46.43 46.43 0 0 1 18.46-3.65q9.75 0 14.19 4.25t4.44 13.73v31.51h-8.53c0-.12-.35-1.1-1-2.95s-.93-2.82-.93-2.94a27.07 27.07 0 0 1 -7 5.16 19.28 19.28 0 0 1 -8.45 1.69zm3.12-8.17a12.51 12.51 0 0 0 7-1.92 11 11 0 0 0 4.24-4.63v-9.32l-2.3.18c-1.45.12-2.24.17-2.35.17q-7 .61-10.24 2.64t-3.25 6.5a6.08 6.08 0 0 0 1.8 4.73 7.33 7.33 0 0 0 5.1 1.65z" fill="#a2a2a6"/><path d="m1619.84 413.49a18.37 18.37 0 0 1 -8.94-2.18 15.51 15.51 0 0 1 -5.82-4.94l-1.14 6.15h-10v-66l11.51-.74v14.94c0 2.9-.08 6.19-.26 9.89a17.9 17.9 0 0 1 14.9-7.48q9.23 0 14.48 6.86t5.25 17.93q0 11.52-5.43 18.57a17.44 17.44 0 0 1 -14.55 7zm-2.77-8.74a9.6 9.6 0 0 0 8.22-4.36q3.07-4.35 3.08-12.34c0-5.37-1-9.42-3-12.18a9.58 9.58 0 0 0 -8.15-4.13q-11.7 0-11.82 15.78 0 8.88 2.94 13.05t8.73 4.18z" fill="#a2a2a6"/><path d="m1668.86 413.23a24.77 24.77 0 0 1 -8.24-1.17 10.66 10.66 0 0 1 -5.16-3.71 15.44 15.44 0 0 1 -2.64-6.07 42.73 42.73 0 0 1 -.75-8.74v-47.07l11.52-.74v47.59c0 4.34.51 7.27 1.54 8.81s3 2.31 6 2.31a39.73 39.73 0 0 0 5.58-.49l.31 8.22-1.08.22c-.68.15-1.34.27-2 .38s-1.43.2-2.4.3a23.66 23.66 0 0 1 -2.68.16z" fill="#a2a2a6"/><path d="m1707.47 413.49q-11.65 0-18.13-6.7t-6.48-18.52q0-11.52 6.1-18.33t16.66-6.86q10 0 15.49 6.25t5.52 16.56v2.42s0 1.93 0 2.46h-32.12q.16 6.76 3.71 10.48t9.73 3.71a30.37 30.37 0 0 0 15.21-4.13l1.63 8.18a32.21 32.21 0 0 1 -17.32 4.48zm-12.79-30h21.09c0-3.93-.89-6.94-2.68-9a9.21 9.21 0 0 0 -7.43-3.17 10.16 10.16 0 0 0 -7.49 3.08q-3.06 3.06-3.49 9.12z" fill="#a2a2a6"/><path d="m1785.9 413.49q-10.73 0-16.87-6.94t-6.15-18.28q0-11.7 6.15-18.44t17.36-6.75q10.8 0 16.94 6.88t6.13 18.31q0 11.55-6.2 18.39t-17.36 6.83zm.31-8.74q5.85 0 8.79-4.27t2.94-12.21c0-5.37-1-9.45-2.94-12.27s-4.92-4.21-8.88-4.21-6.83 1.41-8.81 4.24-3 6.92-3 12.28 1 9.33 3 12.17 4.97 4.27 8.9 4.27z" fill="#a2a2a6"/><path d="m1821.82 357.24v-9.84h11.56v9.84zm0 55.33v-48.3h11.52v48.3z" fill="#a2a2a6"/><path d="m1865 413.23a24.81 24.81 0 0 1 -8.24-1.17 10.66 10.66 0 0 1 -5.16-3.71 15.44 15.44 0 0 1 -2.64-6.07 43.54 43.54 0 0 1 -.74-8.74v-47.07l11.51-.74v47.59c0 4.34.51 7.27 1.54 8.81s3 2.31 6 2.31a40 40 0 0 0 5.58-.49l.3 8.22-1.07.22c-.69.15-1.35.27-2 .38s-1.43.2-2.39.3a24 24 0 0 1 -2.69.16z" fill="#a2a2a6"/><path d="m1878.29 369.81 4.75-21.67h9.58l-7 21.67z" fill="#a2a2a6"/><path d="m1902.48 426.72 2.46-25h9.93l-5.45 25zm.79-51.11v-11.61h11.6v11.6z" fill="#a2a2a6"/><g fill="#10162f"><path d="m289.92 228c-5.38 0-9.64-1.64-12.75-4.9s-4.68-7.77-4.68-13.51 1.56-10.29 4.69-13.53 7.38-4.86 12.77-4.86 9.63 1.63 12.74 4.87 4.66 7.76 4.66 13.54-1.56 10.21-4.68 13.48-7.38 4.91-12.75 4.91zm-7.83-8.79q2.66 3.39 7.86 3.39t7.85-3.38q2.64-3.37 2.65-9.56t-2.65-9.66c-1.77-2.3-4.38-3.44-7.83-3.44s-6.09 1.15-7.87 3.45-2.67 5.53-2.67 9.68.88 7.31 2.66 9.56z"/><path d="m313.63 227.52v-35.76h11.16q7.09 0 10.59 2.07t3.49 6.91a13.13 13.13 0 0 1 -.09 1.54 9.47 9.47 0 0 1 -.44 1.72 6.54 6.54 0 0 1 -2.47 3.27 7.54 7.54 0 0 1 -2.34 1.16 8.77 8.77 0 0 1 5.07 3.09 8.9 8.9 0 0 1 1.76 5.63 9 9 0 0 1 -3.57 7.71q-3.59 2.67-9.9 2.66zm6.62-21h5.66q6.57 0 6.57-5c0-1.87-.63-3.15-1.9-3.85a12.94 12.94 0 0 0 -6-1h-4.32zm0 16.21h5.75q7.62 0 7.62-6a4.88 4.88 0 0 0 -1.9-4.32c-1.27-.88-3.24-1.32-5.89-1.32h-5.56z"/><path d="m340.53 235.36-.26-5.2a15.56 15.56 0 0 0 2.56.2c1.81 0 3-.47 3.66-1.4a8.31 8.31 0 0 0 .95-4.59v-32.71h6.64v32.27a20.73 20.73 0 0 1 -.55 5.19 8.48 8.48 0 0 1 -1.85 3.59 7.46 7.46 0 0 1 -3.47 2.16 17.85 17.85 0 0 1 -5.36.69 12.08 12.08 0 0 1 -2.32-.2z"/><path d="m361.63 227.52v-35.76h21.68l-.31 5.24h-14.8v9.22h14.07v5.25h-14.03v10.77h15.34l-.22 5.27z"/><path d="m405.35 228q-7.83 0-12.42-4.94t-4.59-13.62q0-8.25 4.79-13.24a16.64 16.64 0 0 1 12.56-5 18.62 18.62 0 0 1 10.62 2.91l-2.07 5a16 16 0 0 0 -8.4-2.56 9.48 9.48 0 0 0 -7.8 3.55q-2.87 3.56-2.87 9.54 0 6.19 2.77 9.59a9.63 9.63 0 0 0 7.9 3.4 19.43 19.43 0 0 0 8.91-2.25l.88 5.17a19.78 19.78 0 0 1 -10.28 2.45z"/><path d="m428.42 227.52v-30.47h-10.42v-5.29h27.44v5.29h-10.38v30.47z"/><path d="m713.4 179.52v-35.86h11.91a21.16 21.16 0 0 1 7.23 1.09 9.8 9.8 0 0 1 4.75 3.52 10.3 10.3 0 0 1 1.71 6.13 14.39 14.39 0 0 1 -.66 4.55 9.6 9.6 0 0 1 -2.17 3.62 9.82 9.82 0 0 1 -4.26 2.5 21.78 21.78 0 0 1 -6.63.88c-2.21 0-4-.07-5.39-.2v13.77zm11.2-18.36a14.1 14.1 0 0 0 3.53-.39 7 7 0 0 0 2.35-1 4.51 4.51 0 0 0 1.34-1.51 6.1 6.1 0 0 0 .66-1.75 10.75 10.75 0 0 0 .16-1.89 5.42 5.42 0 0 0 -1.91-4.49 8.32 8.32 0 0 0 -5.37-1.54h-5.44v12.53c.19.03 1.76.04 4.68.04z"/><path d="m743.79 179.52v-35.86h13.26a39.87 39.87 0 0 1 4.7.24 17.91 17.91 0 0 1 3.79.89 8 8 0 0 1 2.9 1.75 7.64 7.64 0 0 1 1.76 2.87 12.21 12.21 0 0 1 .65 4.19q0 7.13-6.47 9.37a27.13 27.13 0 0 1 3.27 5.52l5.32 11h-7.23l-4.17-9.35c-1.58-3.35-2.56-5.34-2.93-5.95q-.42 0-2.76 0l-5.54-.05v15.38zm13.85-20.11c2.54 0 4.36-.46 5.47-1.36a5.32 5.32 0 0 0 1.66-4.36 4.52 4.52 0 0 0 -1.69-3.88 8.67 8.67 0 0 0 -5.15-1.24h-7.59v10.81h3.66z"/><path d="m793.89 180q-8.08 0-12.75-4.9t-4.68-13.51q0-8.67 4.69-13.53t12.77-4.86q8.07 0 12.74 4.87t4.66 13.54q0 8.58-4.68 13.48t-12.75 4.91zm-7.83-8.79q2.66 3.39 7.86 3.39t7.85-3.38q2.64-3.37 2.64-9.56t-2.64-9.66c-1.77-2.3-4.38-3.44-7.83-3.44s-6.09 1.15-7.87 3.45-2.68 5.53-2.68 9.68.89 7.31 2.67 9.56z"/><path d="m817.43 179.52v-35.86h11.91a21.16 21.16 0 0 1 7.23 1.09 9.8 9.8 0 0 1 4.75 3.52 10.3 10.3 0 0 1 1.74 6.13 14.39 14.39 0 0 1 -.66 4.55 9.26 9.26 0 0 1 -6.43 6.12 21.78 21.78 0 0 1 -6.63.88c-2.21 0-4-.07-5.39-.2v13.77zm11.2-18.36a14.15 14.15 0 0 0 3.53-.39 6.93 6.93 0 0 0 2.34-1 4.54 4.54 0 0 0 1.35-1.51 6.1 6.1 0 0 0 .66-1.75 10.75 10.75 0 0 0 .16-1.89 5.42 5.42 0 0 0 -1.91-4.49 8.32 8.32 0 0 0 -5.37-1.54h-5.39v12.53c.14.03 1.7.04 4.63.04z"/><path d="m848 179.52v-35.76h21.68l-.28 5.24h-14.79v9.22h14.06v5.25h-14.06v10.77h15.33l-.22 5.27z"/><path d="m876 179.52v-35.86h13.2a39.75 39.75 0 0 1 4.7.24 17.91 17.91 0 0 1 3.79.89 8 8 0 0 1 2.9 1.75 7.64 7.64 0 0 1 1.76 2.87 12.21 12.21 0 0 1 .65 4.19q0 7.13-6.47 9.37a26.22 26.22 0 0 1 3.27 5.52l5.32 11h-7.22l-4.18-9.35c-1.58-3.35-2.55-5.34-2.93-5.95-.28 0-1.19 0-2.76 0l-5.54-.05v15.38zm13.84-20.11c2.54 0 4.36-.46 5.47-1.36a5.29 5.29 0 0 0 1.66-4.36 4.5 4.5 0 0 0 -1.69-3.88 8.67 8.67 0 0 0 -5.15-1.24h-7.59v10.81h3.64z"/><path d="m917.06 179.52v-30.47h-10.42v-5.29h27.44v5.29h-10.38v30.47z"/><path d="m946.43 179.52v-14.18l-12.38-21.58h7.18l8.52 15.48 8.57-15.48h7.08l-12.33 21.46v14.3z"/><path d="m769.27 227.52v-35.76h7q1.91 3 7.74 12t7.11 11c.24.38.66 1 1.25 1.9s1 1.52 1.26 1.89q-.17-8.37-.17-8.69v-18.1h6v35.76h-7.13l-16.14-25.14-1.17-1.93c.13 4.3.2 7.31.2 9.06v18z"/><path d="m803.28 227.52 13.16-35.79h7.2l13 35.79h-6.78l-3.54-10.1h-12.57l-3.56 10.1zm12.13-15h9.18q-4.4-14.08-4.51-14.55z"/><path d="m840.17 227.52v-35.76h7.83l10.82 25.83 10.89-25.83h7.71v35.76h-6.1v-17.67l.19-10.13-.9 2.68-9.16 22.68h-5.66l-9-22.8-.9-2.69.22 10.36v17.57z"/><path d="m885.12 227.52v-35.76h21.68l-.27 5.25h-14.8v9.22h14.06v5.25h-14.06v10.77h15.33l-.22 5.27z"/><path d="m1042.08 180.3 13.16-35.79h7.2l13 35.79h-6.78l-3.54-10.11h-12.53l-3.59 10.11zm12.13-15h9.18q-4.4-14.08-4.52-14.55z"/><path d="m1089.22 180.79a22.64 22.64 0 0 1 -11.6-3l1.62-5.25a23.86 23.86 0 0 0 5 2.05 18.89 18.89 0 0 0 5.26.78 7.24 7.24 0 0 0 4.76-1.35 4.83 4.83 0 0 0 1.61-3.9c0-2.24-1.5-3.8-4.49-4.66l-1.78-.52-2.75-.83c-.85-.27-1.47-.48-1.84-.63q-7.2-2.53-7.2-9.47a8.86 8.86 0 0 1 3.45-7.49q3.45-2.64 9.17-2.64a22.25 22.25 0 0 1 11.15 2.66l-2 4.83a21.84 21.84 0 0 0 -8.88-2.14 7.88 7.88 0 0 0 -4.46 1 4.14 4.14 0 0 0 -1.6 3.46 3.75 3.75 0 0 0 3 3.88c.39.15 1.35.46 2.88.95l3 1c3.28 1.08 5.62 2.41 7 4a9.7 9.7 0 0 1 2.12 6.66 9.28 9.28 0 0 1 -3.64 7.82q-3.66 2.79-9.78 2.79z"/><path d="m1118.25 180.79a22.64 22.64 0 0 1 -11.6-3l1.61-5.25a23.94 23.94 0 0 0 5 2.05 18.89 18.89 0 0 0 5.26.78 7.26 7.26 0 0 0 4.76-1.35 4.83 4.83 0 0 0 1.61-3.9c0-2.24-1.5-3.8-4.49-4.66l-1.78-.52-2.75-.83c-.86-.27-1.47-.48-1.84-.63q-7.21-2.53-7.21-9.47a8.86 8.86 0 0 1 3.46-7.49q3.45-2.64 9.17-2.64a22.25 22.25 0 0 1 11.15 2.66l-2 4.83a21.85 21.85 0 0 0 -8.89-2.14 7.85 7.85 0 0 0 -4.45 1 4.11 4.11 0 0 0 -1.6 3.46 3.74 3.74 0 0 0 2.95 3.88c.39.15 1.35.46 2.88.95l3 1c3.27 1.08 5.61 2.41 7 4a9.7 9.7 0 0 1 2.11 6.66 9.27 9.27 0 0 1 -3.6 7.82q-3.62 2.79-9.75 2.79z"/><path d="m1137.41 180.3v-35.77h6.59v35.77z"/><path d="m1167.91 180.81q-8.19 0-12.78-4.93t-4.61-13.5a20.53 20.53 0 0 1 2.15-9.58 15.34 15.34 0 0 1 6.33-6.46 19.94 19.94 0 0 1 9.86-2.32 21.28 21.28 0 0 1 11.18 2.81l-2.15 4.93a18.68 18.68 0 0 0 -8.91-2.39 10.79 10.79 0 0 0 -8.52 3.51q-3.11 3.52-3.1 9.57t2.76 9.5q2.76 3.5 8.08 3.49a17.2 17.2 0 0 0 6.2-1.07v-8.3h-7.49v-5.2h13.67v17.26a38.89 38.89 0 0 1 -6.29 2 29.6 29.6 0 0 1 -6.38.68z"/><path d="m1187.73 180.3v-35.77h7q1.9 3 7.74 12t7.11 11c.24.38.66 1 1.25 1.89s1 1.52 1.26 1.9c-.11-5.59-.17-8.48-.17-8.7v-18.09h6v35.77h-7.13l-16.14-25.15-1.17-1.93q.2 6.45.2 9.06v18z"/><path d="m1225.67 180.3v-35.77h7.81l10.82 25.83 10.89-25.83h7.71v35.77h-6.1v-17.68l.19-10.13-.9 2.69-9.15 22.68h-5.67l-9-22.8-.9-2.69.22 10.35v17.58z"/><path d="m1270.62 180.3v-35.77h21.68l-.27 5.25h-14.8v9.22h14.07v5.25h-14.07v10.75h15.34l-.22 5.27z"/><path d="m1298.74 180.3v-35.77h7q1.9 3 7.74 12t7.11 11q.36.57 1.26 1.89c.59.89 1 1.52 1.25 1.9-.11-5.59-.17-8.48-.17-8.7v-18.09h6v35.77h-7.13l-16.13-25.15-1.18-1.93q.2 6.45.2 9.06v18z"/><path d="m1343.59 180.3v-30.47h-10.42v-5.3h27.44v5.3h-10.38v30.47z"/><path d="m1088.92 228.81q-8.09 0-12.76-4.89t-4.68-13.52q0-8.66 4.69-13.52t12.77-4.86q8.08 0 12.75 4.87t4.66 13.54q0 8.56-4.69 13.48t-12.74 4.9zm-7.84-8.79q2.65 3.4 7.86 3.4c3.47 0 6.08-1.13 7.85-3.38s2.65-5.44 2.65-9.56-.88-7.4-2.65-9.69-4.37-3.45-7.82-3.45-6.1 1.15-7.88 3.46-2.67 5.53-2.67 9.68.89 7.28 2.66 9.52z"/><path d="m1112.45 228.3v-35.86h11.92a21.4 21.4 0 0 1 7.22 1.08 9.77 9.77 0 0 1 4.75 3.53 10.31 10.31 0 0 1 1.75 6.13 14.43 14.43 0 0 1 -.66 4.55 9.35 9.35 0 0 1 -6.44 6.12 22.07 22.07 0 0 1 -6.62.88c-2.22 0-4-.07-5.4-.2v13.77zm11.21-18.36a14.15 14.15 0 0 0 3.53-.39 6.93 6.93 0 0 0 2.34-1 4.61 4.61 0 0 0 1.34-1.51 5.66 5.66 0 0 0 .66-1.75 9.87 9.87 0 0 0 .16-1.89 5.42 5.42 0 0 0 -1.9-4.49 8.33 8.33 0 0 0 -5.38-1.54h-5.41v12.52c.17.03 1.73.05 4.66.05z"/><path d="m1143 228.3v-35.77h21.68l-.27 5.25h-14.8v9.22h14.07v5.25h-14.07v10.75h15.39l-.22 5.27z"/><path d="m1171 228.3v-35.86h13.26a39.87 39.87 0 0 1 4.7.24 17.1 17.1 0 0 1 3.78.89 7.12 7.12 0 0 1 4.67 4.62 12.2 12.2 0 0 1 .64 4.18q0 7.13-6.47 9.38a26.36 26.36 0 0 1 3.27 5.51l5.33 11h-7.23l-4.17-9.35q-2.37-5-2.93-6c-.28 0-1.2 0-2.76 0l-5.54-.05v15.44zm13.84-20.12c2.54 0 4.37-.45 5.47-1.35a5.31 5.31 0 0 0 1.66-4.36 4.51 4.51 0 0 0 -1.68-3.88 8.66 8.66 0 0 0 -5.15-1.25h-7.59v10.82h7.29z"/><path d="m1201.25 228.3 13.15-35.79h7.21l13 35.79h-6.79l-3.54-10.11h-12.52l-3.57 10.11zm12.13-15h9.18q-4.39-14.08-4.52-14.55z"/><path d="m1243.09 228.3v-30.47h-10.42v-5.3h27.44v5.3h-10.38v30.47z"/><path d="m1280.15 228.81q-8.09 0-12.76-4.89t-4.67-13.52q0-8.66 4.69-13.52t12.77-4.86q8.07 0 12.74 4.87t4.66 13.54q0 8.56-4.68 13.48t-12.75 4.9zm-7.84-8.79q2.67 3.4 7.87 3.4t7.82-3.42q2.64-3.39 2.64-9.56t-2.64-9.69q-2.65-3.45-7.83-3.45t-7.87 3.46q-2.67 3.45-2.68 9.68t2.69 9.56z"/><path d="m1303.69 228.3v-35.86h13.25a39.75 39.75 0 0 1 4.7.24 17.32 17.32 0 0 1 3.79.89 7.76 7.76 0 0 1 2.9 1.75 7.64 7.64 0 0 1 1.76 2.87 12.19 12.19 0 0 1 .65 4.18q0 7.13-6.47 9.38a26.36 26.36 0 0 1 3.27 5.51l5.32 11h-7.22l-4.18-9.35q-2.37-5-2.93-6c-.28 0-1.2 0-2.76 0l-5.54-.05v15.44zm13.84-20.12q3.81 0 5.47-1.35a5.34 5.34 0 0 0 1.66-4.36 4.49 4.49 0 0 0 -1.69-3.88 8.66 8.66 0 0 0 -5.15-1.25h-7.59v10.82h7.3z"/><path d="m1514.47 227.52-13-35.76h6.81l7.57 22.09c.29.77 1 3 2 6.72.07-.26.37-1.34.91-3.22s.88-3 1-3.45 1.43-4.23 3.71-11 3.52-10.5 3.73-11.12h6.8l-12.84 35.76z"/><path d="m1531.17 227.52 13.16-35.79h7.2l13 35.79h-6.78l-3.54-10.1h-12.53l-3.56 10.1zm12.13-15h9.18q-4.39-14.08-4.52-14.55z"/><path d="m1568.06 227.52v-35.76h6.61v30.49h15l-.2 5.27z"/><path d="m1608.17 228q-7 0-10.67-3.51t-3.64-9.87v-22.9h6.64v22.38c0 3 .61 5.15 1.82 6.51s3.2 2.06 6 2.06 4.69-.69 5.91-2.07 1.83-3.55 1.83-6.53v-22.31h6.62v23q0 6.31-3.71 9.82t-10.8 3.42z"/><path d="m1630 227.52v-35.76h21.68l-.26 5.25h-14.8v9.22h14.06v5.25h-14.06v10.77h15.38l-.22 5.27z"/></g><path d="m157.45 585q-10.68 0-17.09-3.65l1.18-8.65a35.78 35.78 0 0 0 7.39 2.83 30.39 30.39 0 0 0 8.17 1.25 10.68 10.68 0 0 0 6-1.42 4.85 4.85 0 0 0 2.17-4.2 4.65 4.65 0 0 0 -2-4 37.81 37.81 0 0 0 -7.62-3.6l-2.51-.92q-6.67-2.59-9.62-5.78a12.25 12.25 0 0 1 -2.95-8.64q0-6.59 4.77-10.1t13.3-3.52a36 36 0 0 1 16.21 3.47l-2.86 8a31.14 31.14 0 0 0 -13.14-3.21 10.67 10.67 0 0 0 -5.42 1.16 3.85 3.85 0 0 0 -2 3.54 4 4 0 0 0 1.89 3.49 40.72 40.72 0 0 0 7.38 3.28c.12 0 .5.16 1.15.39l1.49.57q6.65 2.43 9.76 5.78a12.39 12.39 0 0 1 3.12 8.77q0 7.24-4.92 11.21t-13.85 3.95z" fill="#3a10e5"/><path d="m188 604.2v-68.38h9.89l1.23 6.76a16.36 16.36 0 0 1 6.31-5.91 18.41 18.41 0 0 1 8.77-2.08 17.17 17.17 0 0 1 10.43 3.29 20.5 20.5 0 0 1 6.84 9 33.71 33.71 0 0 1 2.33 12.85q0 11.21-5.43 18.26a17.58 17.58 0 0 1 -14.7 7.06 18.52 18.52 0 0 1 -8.29-1.83 18 18 0 0 1 -6.21-4.94q.34 6.33.35 7.12v18.23zm23.21-28a9.36 9.36 0 0 0 8.11-4.31q3-4.31 3-12.31t-3-12.21a9.69 9.69 0 0 0 -8.3-4.09q-11.43 0-11.56 15.56 0 9 3 13.16t8.76 4.25z" fill="#3a10e5"/><path d="m258.48 585q-6.72 0-10.88-3.72t-4.15-10.7q0-7.51 4.92-11.14t14.85-4.59c.91-.12 1.89-.24 2.95-.35s2.24-.24 3.56-.35 2.36-.22 3.12-.31v-2.55c0-2.93-.68-5.06-2-6.39s-3.4-2-6.16-2q-5.88 0-14.54 3.29c0-.09-.51-1.42-1.45-4s-1.42-3.89-1.45-4a46.43 46.43 0 0 1 18.46-3.65q9.75 0 14.19 4.24t4.44 13.73v31.51h-8.53c0-.11-.35-1.1-1-2.94s-.93-2.83-.93-2.95a26.9 26.9 0 0 1 -7 5.17 19.28 19.28 0 0 1 -8.4 1.7zm3.12-8.18a12.59 12.59 0 0 0 7-1.91 11.13 11.13 0 0 0 4.24-4.64v-9.27l-2.3.17-2.35.18q-7 .61-10.24 2.64t-3.26 6.5a6.08 6.08 0 0 0 1.81 4.72 7.33 7.33 0 0 0 5.1 1.65z" fill="#3a10e5"/><path d="m319.76 585q-11.08 0-17.25-6.6t-6.18-18.85q0-11.87 6.48-18.41t17.08-6.55a26.54 26.54 0 0 1 14.32 3.65l-2.72 8.22a24.21 24.21 0 0 0 -11.12-3.12 11.21 11.21 0 0 0 -9.21 4.17q-3.36 4.17-3.36 12.17t3.32 12.32a11.25 11.25 0 0 0 9.38 4.22 22.32 22.32 0 0 0 12.18-3.74l1.09 8.75a21.57 21.57 0 0 1 -6.28 2.9 30.18 30.18 0 0 1 -7.73.87z" fill="#3a10e5"/><path d="m367.59 585q-11.65 0-18.13-6.71t-6.46-18.48q0-11.5 6.11-18.32t16.65-6.86q10 0 15.49 6.24t5.52 16.57v2.41s0 1.94 0 2.47h-32.19q.18 6.76 3.71 10.48t9.74 3.71a30.46 30.46 0 0 0 15.2-4.13l1.63 8.17a32.19 32.19 0 0 1 -17.27 4.45zm-12.79-30h21.09q0-5.88-2.68-9a9.19 9.19 0 0 0 -7.42-3.16 10.17 10.17 0 0 0 -7.5 3.07q-3.04 3.09-3.49 9.15z" fill="#3a10e5"/><path d="m414.23 585q-10.68 0-17.09-3.65l1.19-8.65a35.45 35.45 0 0 0 7.38 2.83 30.39 30.39 0 0 0 8.17 1.25 10.66 10.66 0 0 0 6-1.42 4.85 4.85 0 0 0 2.17-4.2 4.62 4.62 0 0 0 -2-4 37.81 37.81 0 0 0 -7.62-3.6l-2.51-.92q-6.67-2.59-9.62-5.78a12.25 12.25 0 0 1 -2.95-8.64q0-6.59 4.77-10.1t13.3-3.52a36 36 0 0 1 16.21 3.47l-2.85 8a31.18 31.18 0 0 0 -13.14-3.21 10.69 10.69 0 0 0 -5.43 1.16 3.85 3.85 0 0 0 -2 3.54 4 4 0 0 0 1.89 3.44 40.57 40.57 0 0 0 7.39 3.28l1.14.39 1.49.57q6.64 2.43 9.76 5.78a12.39 12.39 0 0 1 3.12 8.77q0 7.24-4.92 11.21t-13.85 4z" fill="#3a10e5"/><path d="m444.8 584.11v-66.11l11.51-.75v13.95c0 .68 0 2.54-.13 5.61s-.13 4.62-.13 4.68q5.74-6.86 15.46-6.86 8.08 0 12.55 4.64t4.46 14.26v30.58h-11.52v-29.31q0-5.92-1.89-8.7t-6.42-2.77a12.16 12.16 0 0 0 -6.85 2 12.4 12.4 0 0 0 -4.49 5 43.2 43.2 0 0 0 -1.05 10.55v23.24z" fill="#3a10e5"/><path d="m502.82 528.79v-9.85h11.56v9.85zm0 55.32v-48.29h11.52v48.29z" fill="#3a10e5"/><path d="m529 604.2v-68.38h9.89l1.23 6.76a16.29 16.29 0 0 1 6.31-5.91 18.39 18.39 0 0 1 8.76-2.08 17.18 17.18 0 0 1 10.44 3.29 20.4 20.4 0 0 1 6.83 9 33.52 33.52 0 0 1 2.33 12.85q0 11.21-5.42 18.26a17.58 17.58 0 0 1 -14.67 7.01 18.52 18.52 0 0 1 -8.29-1.83 18.06 18.06 0 0 1 -6.22-4.94q.36 6.33.36 7.12v18.23zm23.21-28a9.33 9.33 0 0 0 8.1-4.31q3-4.31 3-12.31t-3-12.21a9.69 9.69 0 0 0 -8.3-4.09q-11.43 0-11.56 15.56 0 9 3 13.16t8.79 4.25z" fill="#3a10e5"/><path d="m591.85 584.9a6.59 6.59 0 0 1 -4.83-2 6.43 6.43 0 0 1 -2-4.71 6.68 6.68 0 0 1 2-4.79 6.53 6.53 0 0 1 4.86-2 6.34 6.34 0 0 1 4.75 2 6.7 6.7 0 0 1 1.93 4.79 6.5 6.5 0 0 1 -1.93 4.71 6.41 6.41 0 0 1 -4.78 2z" fill="#a2a2a6"/><path d="m631.55 585q-11.07 0-17.25-6.6t-6.17-18.85q0-11.87 6.48-18.41t17.07-6.55a26.58 26.58 0 0 1 14.32 3.69l-2.72 8.22a24.24 24.24 0 0 0 -11.12-3.12 11.19 11.19 0 0 0 -9.21 4.17q-3.36 4.17-3.36 12.17t3.33 12.28a11.25 11.25 0 0 0 9.38 4.22 22.26 22.26 0 0 0 12.17-3.74l1.1 8.75a21.69 21.69 0 0 1 -6.28 2.9 30.21 30.21 0 0 1 -7.74.87z" fill="#cca900"/><path d="m677.8 585q-10.72 0-16.87-6.95t-6.16-18.28q0-11.68 6.16-18.43t17.36-6.75q10.8 0 16.94 6.88t6.13 18.3q0 11.57-6.2 18.39t-17.36 6.84zm.31-8.75q5.85 0 8.79-4.26t2.94-12.22q0-8-2.94-12.26t-8.9-4.18q-5.84 0-8.81 4.24t-3 12.28q0 7.92 3 12.18c2.04 2.84 4.99 4.26 8.92 4.26z" fill="#cca900"/><path d="m730.38 584.77a25.05 25.05 0 0 1 -8.24-1.16 10.74 10.74 0 0 1 -5.16-3.72 15.46 15.46 0 0 1 -2.64-6.06 42.84 42.84 0 0 1 -.75-8.75v-47.08l11.52-.75v47.59q0 6.51 1.53 8.82t6 2.3a41.06 41.06 0 0 0 5.58-.48l.31 8.22-1.08.22c-.69.14-1.34.27-2 .37s-1.43.2-2.4.31a26.23 26.23 0 0 1 -2.67.17z" fill="#cca900"/><path d="m767.4 585q-10.73 0-16.87-6.95t-6.16-18.28q0-11.68 6.16-18.43t17.35-6.75q10.82 0 17 6.88t6.13 18.3q0 11.57-6.2 18.39t-17.41 6.84zm.31-8.75q5.84 0 8.79-4.26t2.94-12.22q0-8-2.94-12.26c-2-2.81-4.92-4.22-8.88-4.22s-6.83 1.41-8.81 4.24-3 6.92-3 12.28 1 9.34 3 12.18 4.97 4.3 8.9 4.3z" fill="#cca900"/><path d="m803.1 584.11v-48.29h9.67l1.5 7.38a15.25 15.25 0 0 1 13.73-7.6 23.1 23.1 0 0 1 3.08.17l-.18 9.63a24 24 0 0 0 -3.65-.27c-4.24 0-7.42 1.13-9.51 3.39s-3.14 5.39-3.14 9.4v26.19z" fill="#cca900"/><path d="m865.55 551v-8.5h44.73v8.5zm0 17.44v-8.44h44.73v8.39z" fill="#a2a2a6"/><path d="m960.42 519.69-4.75 21.66h-9.58l7-21.66z" fill="#a2a2a6"/><path d="m981.09 605.73-.66-9.31h5.85c6.76 0 11.5-.9 14.19-2.71s4-5.1 4-9.91c0-2-.08-4.08-.26-6.37a21.1 21.1 0 0 1 -2.18 2.62 15.18 15.18 0 0 1 -2.59 2 11.58 11.58 0 0 1 -3.73 1.52 22.39 22.39 0 0 1 -5 .5 20.19 20.19 0 0 1 -15.75-6.9q-6.18-6.9-6.18-17.79a31.12 31.12 0 0 1 1.72-10.57 21.72 21.72 0 0 1 4.66-7.85 20.48 20.48 0 0 1 15-6.37q9.72 0 14.46 7.08l.79-5.89h10.28v44.86a52.82 52.82 0 0 1 -.35 6.49 28.09 28.09 0 0 1 -1.23 5.53 16.76 16.76 0 0 1 -2.3 4.64 17 17 0 0 1 -3.59 3.6 18.43 18.43 0 0 1 -5.07 2.66 34.87 34.87 0 0 1 -6.79 1.58 61.74 61.74 0 0 1 -8.7.55zm11.56-29.66q11.91 0 12-16v-1.67q-.09-7.17-3-11.08t-8.48-4q-6.33 0-9.58 4.33t-3.25 11.67a20.55 20.55 0 0 0 3.27 11.86 10.33 10.33 0 0 0 9.04 4.89z" fill="#a2a2a6"/><path d="m1050.54 585q-10.71 0-16.87-6.95t-6.15-18.28q0-11.68 6.15-18.43t17.36-6.75q10.8 0 16.94 6.88t6.13 18.3q0 11.57-6.2 18.39t-17.36 6.84zm.31-8.75q5.85 0 8.79-4.26t2.95-12.22q0-8-2.95-12.26t-8.88-4.22q-5.84 0-8.81 4.24t-3 12.28q0 7.92 3 12.18t8.9 4.3z" fill="#a2a2a6"/><path d="m1103.12 584.77a25.05 25.05 0 0 1 -8.24-1.16 10.74 10.74 0 0 1 -5.16-3.72 15.46 15.46 0 0 1 -2.64-6.06 42.92 42.92 0 0 1 -.74-8.75v-47.08l11.51-.75v47.59q0 6.51 1.54 8.82t6 2.3a41.06 41.06 0 0 0 5.58-.48l.31 8.22s-.39.07-1.07.22-1.35.27-2 .37-1.43.2-2.4.31a26.07 26.07 0 0 1 -2.69.17z" fill="#a2a2a6"/><path d="m1137.38 585q-9.45 0-14.86-6.95t-5.4-18.54q0-11.25 5.38-18.09t14.83-6.83q10.29 0 14.55 7.29a79.71 79.71 0 0 1 -.44-8.3v-15.58l11.51-.75v66.84h-10l-1.28-6.59q-.75 1.18-1.38 2a14.68 14.68 0 0 1 -1.87 2 10.76 10.76 0 0 1 -2.66 1.8 17.61 17.61 0 0 1 -3.6 1.19 21.13 21.13 0 0 1 -4.78.51zm2.72-8.75q11.6 0 11.78-15.78 0-8.91-3-13t-8.92-4.09a9.83 9.83 0 0 0 -8.29 4.15q-3.09 4.15-3.09 12.24t3.09 12.26a9.92 9.92 0 0 0 8.43 4.26z" fill="#a2a2a6"/><path d="m1174.22 541.35 4.75-21.66h9.58l-7 21.66z" fill="#a2a2a6"/><path d="m1198.41 598.26 2.46-25h9.93l-5.45 25zm.79-51.11v-11.6h11.6v11.6z" fill="#a2a2a6"/><path d="m573.93 338.73h-3v-45.51h-426v45.51h-3v-48.51h432z" fill="#10162f"/><path d="m1114.61 338.73h-3v-45.51h-465.6v45.51h-3v-48.51h471.6z" fill="#10162f"/><path d="m1226.85 338.73h-3v-45.51h-47.13v45.51h-3v-48.51h53.13z" fill="#10162f"/><path d="m1900.32 338.73h-3v-45.51h-638.87v45.51h-3v-48.51h644.87z" fill="#10162f"/><path d="m356.43 244.23h3v47.49h-3z" fill="#10162f"/><path d="m836.06 244.23h3v47.49h-3z" fill="#10162f"/><path d="m1198.79 244.23h3v47.49h-3z" fill="#10162f"/><path d="m1576.38 244.23h3v47.49h-3z" fill="#10162f"/></svg>